<svg width="24" height="24" viewBox="0 0 24 24" fill="none" xmlns="http://www.w3.org/2000/svg">
<path d="M5.75 15.25V21.25M5.75 2.75V5.75M18.25 15.25V21.25M18.25 2.75V5.75" stroke="#111827" stroke-width="1.5" stroke-linecap="round" stroke-linejoin="round"/>
<path d="M4.75 5.75C4.21957 5.75 3.71086 5.96071 3.33579 6.33579C2.96071 6.71086 2.75 7.21957 2.75 7.75V13.25C2.75 13.7804 2.96071 14.2891 3.33579 14.6642C3.71086 15.0393 4.21957 15.25 4.75 15.25H19.25C19.7804 15.25 20.2891 15.0393 20.6642 14.6642C21.0393 14.2891 21.25 13.7804 21.25 13.25V7.75C21.25 7.21957 21.0393 6.71086 20.6642 6.33579C20.2891 5.96071 19.7804 5.75 19.25 5.75H4.75Z" stroke="#111827" stroke-width="1.5" stroke-linejoin="round"/>
<path d="M8.917 5.75L3.216 14.533M15.087 5.75L8.92 15.25M15.09 15.25L20.788 6.472" stroke="#111827" stroke-width="1.5" stroke-linecap="round" stroke-linejoin="round"/>
</svg>
