<svg width="234" height="170" viewBox="0 0 234 170" fill="none" xmlns="http://www.w3.org/2000/svg">
<g clip-path="url(#clip0_109_1977)">
<path opacity="0.1" d="M230.035 135.83C224.239 147.773 212.465 155.76 200.266 161.027C190.5 165.216 180.176 167.967 169.618 169.194C167.596 169.434 165.567 169.62 163.532 169.752C158.332 170.09 153.114 170.084 147.915 169.734C144.787 169.527 141.67 169.195 138.564 168.739C127.772 167.166 117.251 164.107 107.3 159.647C104.429 158.356 101.615 156.946 98.8599 155.418C94.2578 152.87 89.8483 149.991 85.6667 146.802C84.7414 146.096 83.8279 145.374 82.9259 144.638L82.5549 144.335C81.8457 143.751 81.1431 143.154 80.4295 142.574C79.2435 141.582 77.9845 140.68 76.6631 139.876C76.5737 139.824 76.4842 139.772 76.3926 139.722C76.1482 139.58 75.8994 139.447 75.6463 139.321C75.1248 139.058 74.5902 138.823 74.0446 138.615C71.5242 137.656 68.8249 137.307 66.0885 137.366C65.6346 137.366 65.1807 137.397 64.7246 137.427C64.0874 137.471 63.4481 137.536 62.8109 137.619L62.5752 137.652C60.5448 137.938 58.5373 138.369 56.5678 138.939C53.5259 139.811 50.5385 140.901 47.5315 141.883C46.255 142.304 44.9762 142.705 43.6866 143.064L43.4029 143.143C41.5687 143.658 39.7016 144.048 37.8144 144.311C33.526 144.858 29.1703 144.508 25.0249 143.282L24.8809 143.241L24.6146 143.162L24.2502 143.049C23.6392 142.857 23.0333 142.647 22.4325 142.419L22.0681 142.28C21.4862 142.056 20.9166 141.816 20.3595 141.559L19.995 141.393C19.4131 141.123 18.8436 140.837 18.2864 140.537C18.0857 140.432 17.8871 140.319 17.6907 140.212C17.0972 139.881 16.5153 139.534 15.945 139.17C15.3398 138.785 14.7477 138.384 14.1687 137.965C13.901 137.774 13.6363 137.577 13.3744 137.375C11.8649 136.222 10.4514 134.949 9.14761 133.568C9.0756 133.496 9.00795 133.422 8.9403 133.35C8.59334 132.975 8.25293 132.594 7.92343 132.204C7.80123 132.06 7.67903 131.916 7.55901 131.768C7.16768 131.291 6.79016 130.804 6.42647 130.306C6.37192 130.234 6.31955 130.16 6.26718 130.088C4.7762 128.029 3.54013 125.797 2.5859 123.442C2.55535 123.37 2.52698 123.296 2.5008 123.224C2.20985 122.476 1.94435 121.715 1.70431 120.942C1.60612 120.62 1.51229 120.288 1.42936 119.966C1.401 119.87 1.37481 119.772 1.35081 119.676C0.146264 114.941 0.00878906 110.018 0.00878906 105.124C0.00878906 104.553 0.00878906 103.983 0.00878906 103.414C0.0437034 95.4969 0.165903 87.4452 1.33553 79.6375C1.33553 79.583 1.35081 79.5285 1.35954 79.4762C1.751 76.8477 2.28349 74.2421 2.95468 71.6707C3.65716 68.9725 4.55492 66.3289 5.6409 63.7606C8.33149 57.4412 12.2441 51.6906 16.5887 46.3605C21.8259 39.9474 27.8268 34.029 34.5107 29.1456C35.4708 28.444 36.444 27.7626 37.4304 27.1016L37.8864 26.8031C38.0457 26.6963 38.205 26.5852 38.3643 26.4915C38.6917 26.2736 39.019 26.0687 39.3507 25.8617L39.7216 25.6307L40.4286 25.1949L40.6469 25.0707L41.0244 24.8528L41.3975 24.6349C41.8339 24.3778 42.2755 24.1264 42.7221 23.8809C44.6293 22.819 46.5816 21.8486 48.579 20.9697C49.1681 20.7096 49.7609 20.459 50.3574 20.2179C53.0653 19.1165 55.8471 18.2056 58.6823 17.4918C59.7297 17.2274 60.7837 16.995 61.8442 16.7945C63.0953 16.5534 64.3529 16.3536 65.6171 16.1953C67.6288 15.9425 69.6521 15.7919 71.6791 15.7442C85.9329 15.3977 100.331 20.0305 111.501 28.9103C115.953 32.4491 119.953 36.6395 124.952 39.3525C129.316 41.7147 134.424 42.6931 139.099 40.8343C142.961 39.298 145.475 38.5354 149.813 38.7685C158.79 39.2735 167.639 41.1216 176.066 44.2511C176.407 44.3753 176.747 44.5039 177.085 44.6325C199.062 53.0329 217.957 69.7139 227.772 91.1496C228.031 91.7162 228.284 92.2871 228.529 92.8624C234.384 106.514 236.496 122.52 230.035 135.83Z" fill="#6C63FF"/>
<path opacity="0.1" d="M43.68 60.446V143.069L43.3963 143.147C41.5621 143.662 39.695 144.053 37.8078 144.315C33.5194 144.863 29.1637 144.512 25.0183 143.287L24.8743 143.245L24.6081 143.167L24.2436 143.053C23.6326 142.862 23.0267 142.652 22.4259 142.424L22.0615 142.284C21.4796 142.06 20.91 141.82 20.3529 141.563L19.9884 141.397C19.4065 141.127 18.837 140.842 18.2798 140.541C18.0791 140.436 17.8805 140.323 17.6841 140.216C17.0906 139.885 16.5087 139.538 15.9384 139.175C15.3332 138.79 14.7411 138.388 14.1621 137.97C13.8945 137.778 13.6297 137.581 13.3678 137.379C11.8583 136.226 10.4448 134.953 9.14102 133.572C9.069 133.5 9.00136 133.426 8.93371 133.354C8.58675 132.979 8.24634 132.598 7.91683 132.208C7.79463 132.064 7.67243 131.92 7.55241 131.772C7.16108 131.296 6.78357 130.808 6.41988 130.31C6.36533 130.238 6.31296 130.164 6.26058 130.092C4.76961 128.033 3.53354 125.801 2.57931 123.446C2.54876 123.374 2.52039 123.3 2.49421 123.228C2.20325 122.48 1.93776 121.719 1.69772 120.946C1.59953 120.624 1.50569 120.293 1.42277 119.97C1.3944 119.874 1.36822 119.776 1.34422 119.68C0.139672 114.945 0.00219727 110.023 0.00219727 105.128C0.00219727 104.557 0.00219727 103.987 0.00219727 103.418C0.0371116 95.5012 0.159311 87.4494 1.32894 79.6417C1.32894 79.5872 1.34422 79.5327 1.35294 79.4804C1.74441 76.852 2.27689 74.2464 2.94809 71.6749H25.2321V60.446H29.675V51.4268H39.2371V60.446H43.68Z" fill="#6C63FF"/>
<path opacity="0.1" d="M230.035 135.83C224.239 147.773 212.464 155.76 200.266 161.027C190.5 165.216 180.176 167.967 169.618 169.194C167.596 169.434 165.567 169.619 163.532 169.752C158.331 170.09 153.114 170.084 147.914 169.734C144.787 169.526 141.67 169.195 138.564 168.738C127.772 167.166 117.25 164.107 107.3 159.647C104.429 158.356 101.615 156.946 98.8598 155.418C94.2577 152.87 89.8482 149.991 85.6665 146.801C84.7413 146.095 83.8277 145.374 82.9258 144.638L82.5548 144.335C81.8456 143.751 81.1429 143.154 80.4294 142.574C79.2433 141.582 77.9843 140.68 76.663 139.876C76.5735 139.824 76.4841 139.772 76.3924 139.722C76.148 139.58 75.8993 139.447 75.6461 139.321C75.1247 139.058 74.5901 138.822 74.0444 138.615V104.815H114.543V112.339H132.316V57.2994H153.237V79.3083H163.584V66.2773H172.134V52.3572H176.062V44.251C176.402 44.3752 176.743 44.5038 177.081 44.6323V52.3572H180.904V66.286H189.447V79.317H202.045V128.963H222.068V92.8579H228.521C234.384 106.514 236.496 122.52 230.035 135.83Z" fill="#6C63FF"/>
<path opacity="0.1" d="M147.919 65.582H138.568V74.9195H147.919V65.582Z" fill="#6C63FF"/>
<path opacity="0.1" d="M147.919 84.937H138.568V94.2744H147.919V84.937Z" fill="#6C63FF"/>
<path opacity="0.1" d="M147.919 104.294H138.568V113.631H147.919V104.294Z" fill="#6C63FF"/>
<path opacity="0.1" d="M147.919 123.65H138.568V132.988H147.919V123.65Z" fill="#6C63FF"/>
<path opacity="0.1" d="M147.919 143.005H138.568V152.343H147.919V143.005Z" fill="#6C63FF"/>
<path opacity="0.1" d="M147.919 162.358V169.732C144.791 169.524 141.674 169.192 138.568 168.736V162.358H147.919Z" fill="#6C63FF"/>
<path opacity="0.1" d="M109.858 116.882H77.1279V121.112H109.858V116.882Z" fill="#6C63FF"/>
<path opacity="0.1" d="M109.858 129.728H77.1279V133.958H109.858V129.728Z" fill="#6C63FF"/>
<path opacity="0.1" d="M109.858 142.574V146.801H85.671C84.7458 146.095 83.8322 145.374 82.9302 144.637L82.5593 144.334C81.8501 143.75 81.1474 143.153 80.4338 142.574H109.858Z" fill="#6C63FF"/>
<path opacity="0.1" d="M109.858 155.417V159.647H107.305C104.433 158.356 101.62 156.946 98.8643 155.417H109.858Z" fill="#6C63FF"/>
<path opacity="0.1" d="M169.622 90.8662H163.536V96.9437H169.622V90.8662Z" fill="#6C63FF"/>
<path opacity="0.1" d="M37.8209 62.5425H31.7349V68.62H37.8209V62.5425Z" fill="#6C63FF"/>
<path opacity="0.1" d="M37.8209 76.6626H31.7349V82.7401H37.8209V76.6626Z" fill="#6C63FF"/>
<path opacity="0.1" d="M37.8209 90.7812H31.7349V96.8587H37.8209V90.7812Z" fill="#6C63FF"/>
<path opacity="0.1" d="M37.8209 104.902H31.7349V110.979H37.8209V104.902Z" fill="#6C63FF"/>
<path opacity="0.1" d="M37.8209 119.022H31.7349V125.1H37.8209V119.022Z" fill="#6C63FF"/>
<path opacity="0.1" d="M37.8209 133.141H31.7349V139.218H37.8209V133.141Z" fill="#6C63FF"/>
<path opacity="0.1" d="M192.86 90.8662H186.774V96.9437H192.86V90.8662Z" fill="#6C63FF"/>
<path opacity="0.1" d="M169.622 105.858H163.536V111.936H169.622V105.858Z" fill="#6C63FF"/>
<path opacity="0.1" d="M192.86 105.858H186.774V111.936H192.86V105.858Z" fill="#6C63FF"/>
<path opacity="0.1" d="M169.622 120.853H163.536V126.93H169.622V120.853Z" fill="#6C63FF"/>
<path opacity="0.1" d="M192.86 120.853H186.774V126.93H192.86V120.853Z" fill="#6C63FF"/>
<path opacity="0.1" d="M169.622 135.847H163.536V141.925H169.622V135.847Z" fill="#6C63FF"/>
<path opacity="0.1" d="M192.86 135.847H186.774V141.925H192.86V135.847Z" fill="#6C63FF"/>
<path opacity="0.1" d="M169.622 150.839H163.536V156.917H169.622V150.839Z" fill="#6C63FF"/>
<path opacity="0.1" d="M192.86 150.839H186.774V156.917H192.86V150.839Z" fill="#6C63FF"/>
<path opacity="0.1" d="M163.536 169.752V165.832H169.622V169.194L163.536 169.752Z" fill="#6C63FF"/>
<path opacity="0.1" d="M1.33105 79.4824V82.969H24.608V79.4824H1.33105ZM3.40409 82.7511H1.69547V79.7003H3.40409V82.7511ZM5.47713 82.7511H3.76851V79.7003H5.47713V82.7511ZM7.55016 82.7511H5.84155V79.7003H7.55016V82.7511ZM9.6232 82.7511H7.91458V79.7003H9.6232V82.7511ZM11.6962 82.7511H9.98762V79.7003H11.6962V82.7511ZM13.7693 82.7511H12.0607V79.7003H13.7693V82.7511ZM15.8423 82.7511H14.1337V79.7003H15.8423V82.7511ZM17.9153 82.7511H16.2067V79.7003H17.9153V82.7511ZM19.9884 82.7511H18.2798V79.7003H19.9884V82.7511ZM22.0614 82.7511H20.3528V79.7003H22.0614V82.7511ZM24.2436 82.7511H22.4258V79.7003H24.2436V82.7511Z" fill="#6C63FF"/>
<path opacity="0.1" d="M1.33105 89.6064V93.0821H24.608V89.6064H1.33105ZM3.40409 92.8642H1.69547V89.8244H3.40409V92.8642ZM5.47713 92.8642H3.76851V89.8244H5.47713V92.8642ZM7.55016 92.8642H5.84155V89.8244H7.55016V92.8642ZM9.6232 92.8642H7.91458V89.8244H9.6232V92.8642ZM11.6962 92.8642H9.98762V89.8244H11.6962V92.8642ZM13.7693 92.8642H12.0607V89.8244H13.7693V92.8642ZM15.8423 92.8642H14.1337V89.8244H15.8423V92.8642ZM17.9153 92.8642H16.2067V89.8244H17.9153V92.8642ZM19.9884 92.8642H18.2798V89.8244H19.9884V92.8642ZM22.0614 92.8642H20.3528V89.8244H22.0614V92.8642ZM24.2436 92.8642H22.4258V89.8244H24.2436V92.8642Z" fill="#6C63FF"/>
<path opacity="0.1" d="M1.33105 99.7285V103.204H24.608V99.7285H1.33105ZM3.40409 102.986H1.69547V99.9464H3.40409V102.986ZM5.47713 102.986H3.76851V99.9464H5.47713V102.986ZM7.55016 102.986H5.84155V99.9464H7.55016V102.986ZM9.6232 102.986H7.91458V99.9464H9.6232V102.986ZM11.6962 102.986H9.98762V99.9464H11.6962V102.986ZM13.7693 102.986H12.0607V99.9464H13.7693V102.986ZM15.8423 102.986H14.1337V99.9464H15.8423V102.986ZM17.9153 102.986H16.2067V99.9464H17.9153V102.986ZM19.9884 102.986H18.2798V99.9464H19.9884V102.986ZM22.0614 102.986H20.3528V99.9464H22.0614V102.986ZM24.2436 102.986H22.4258V99.9464H24.2436V102.986Z" fill="#6C63FF"/>
<path opacity="0.1" d="M1.33105 109.842V113.328H24.608V109.842H1.33105ZM3.40409 113.11H1.69547V110.06H3.40409V113.11ZM5.47713 113.11H3.76851V110.06H5.47713V113.11ZM7.55016 113.11H5.84155V110.06H7.55016V113.11ZM9.6232 113.11H7.91458V110.06H9.6232V113.11ZM11.6962 113.11H9.98762V110.06H11.6962V113.11ZM13.7693 113.11H12.0607V110.06H13.7693V113.11ZM15.8423 113.11H14.1337V110.06H15.8423V113.11ZM17.9153 113.11H16.2067V110.06H17.9153V113.11ZM19.9884 113.11H18.2798V110.06H19.9884V113.11ZM22.0614 113.11H20.3528V110.06H22.0614V113.11ZM24.2436 113.11H22.4258V110.06H24.2436V113.11Z" fill="#6C63FF"/>
<path opacity="0.1" d="M1.42065 119.972C1.50358 120.299 1.59741 120.626 1.6956 120.948V120.19H3.40422V123.241H2.49209C2.51827 123.313 2.54664 123.387 2.57719 123.459H24.6168V119.972H1.42065ZM5.47726 123.241H3.76864V120.19H5.47726V123.241ZM7.5503 123.241H5.84168V120.19H7.5503V123.241ZM9.62333 123.241H7.91472V120.19H9.62333V123.241ZM11.6964 123.241H9.98775V120.19H11.6964V123.241ZM13.7694 123.241H12.0608V120.19H13.7694V123.241ZM15.8424 123.241H14.1338V120.19H15.8424V123.241ZM17.9155 123.241H16.2069V120.19H17.9155V123.241ZM19.9885 123.241H18.2799V120.19H19.9885V123.241ZM22.0616 123.241H20.3529V120.19H22.0616V123.241ZM24.2437 123.241H22.426V120.19H24.2437V123.241Z" fill="#6C63FF"/>
<path opacity="0.1" d="M6.2583 130.094C6.31067 130.166 6.36304 130.24 6.4176 130.312H7.55013V131.774C7.67015 131.92 7.79235 132.064 7.91455 132.21V130.314H9.62317V133.365H8.93143C8.99907 133.437 9.06672 133.511 9.13873 133.583H24.608V130.096L6.2583 130.094ZM11.6962 133.363H9.98758V130.312H11.6962V133.363ZM13.7692 133.363H12.0606V130.312H13.7692V133.363ZM15.8423 133.363H14.1337V130.312H15.8423V133.363ZM17.9153 133.363H16.2067V130.312H17.9153V133.363ZM19.9883 133.363H18.2797V130.312H19.9883V133.363ZM22.0614 133.363H20.3528V130.312H22.0614V133.363ZM24.2435 133.363H22.4258V130.312H24.2435V133.363Z" fill="#6C63FF"/>
<path opacity="0.1" d="M17.6841 140.216C17.8805 140.327 18.0791 140.434 18.2798 140.541V140.434H19.9884V141.397L20.3528 141.563V140.434H22.0615V142.284L22.4259 142.424V140.434H24.2436V143.049L24.608 143.162V140.216H17.6841Z" fill="#6C63FF"/>
<path opacity="0.1" d="M89.4592 49.2998C89.4592 49.2998 84.257 48.986 84.8767 52.6251C84.8449 52.81 84.8726 53.0003 84.9557 53.1686C85.0388 53.3369 85.1731 53.4746 85.3393 53.5621C85.3393 53.5621 85.3393 53.2919 85.8718 53.3834C86.0585 53.414 86.2482 53.4228 86.4369 53.4095C86.6922 53.3927 86.9351 53.2933 87.1287 53.1262C87.1287 53.1262 88.5907 52.5226 89.1603 50.1365C89.1603 50.1365 89.5792 49.6157 89.564 49.4828L88.6911 49.8576C88.6911 49.8576 88.9922 50.4895 88.7566 51.0147C88.7566 51.0147 88.7282 49.8816 88.558 49.9077C88.5253 49.9077 88.1019 50.1256 88.1019 50.1256C88.1019 50.1256 88.6191 51.2283 88.2285 52.028C88.2285 52.028 88.3769 50.6726 87.9426 50.2063L87.3098 50.5702C87.3098 50.5702 87.9143 51.7077 87.504 52.636C87.504 52.636 87.6109 51.213 87.1811 50.6595L86.6202 51.0953C86.6202 51.0953 87.1876 52.2154 86.8385 52.9868C86.8385 52.9868 86.7926 51.3285 86.4959 51.2021C86.2829 51.3813 86.0931 51.5863 85.9307 51.8123C85.9307 51.8123 86.3191 52.6251 86.0791 53.0543C86.0791 53.0543 85.9307 51.9517 85.8085 51.9452C85.8085 51.9452 85.3219 52.6774 85.2717 53.1785C85.2941 52.7136 85.4386 52.2627 85.6907 51.8711C85.4095 51.9242 85.1501 52.0583 84.9444 52.2568C84.9444 52.2568 85.0207 51.7403 85.8172 51.6946C85.8172 51.6946 86.2209 51.1411 86.33 51.1062C86.33 51.1062 85.5423 51.0409 85.0644 51.2522C85.0644 51.2522 85.4855 50.7641 86.474 50.9864L87.0261 50.5353C87.0261 50.5353 85.9896 50.3937 85.551 50.5506C85.551 50.5506 86.0551 50.1147 87.1745 50.4329L87.7768 50.0733C87.3141 49.9722 86.8403 49.9311 86.3671 49.9513C86.3671 49.9513 86.9214 49.6528 87.9535 49.9775L88.39 49.7835C88.39 49.7835 87.7353 49.6571 87.5542 49.6375C87.3731 49.6179 87.3535 49.5656 87.3535 49.5656C87.7633 49.4974 88.1841 49.5441 88.5689 49.7007C88.5689 49.7007 89.4745 49.3564 89.4592 49.2998Z" fill="#6C63FF"/>
<path opacity="0.1" d="M75.8033 67.0094C75.8033 67.0094 74.0249 71.8993 77.6952 72.346C77.8633 72.4286 78.0532 72.456 78.2378 72.4243C78.4224 72.3926 78.5922 72.3034 78.723 72.1695C78.723 72.1695 78.4677 72.0845 78.7034 71.6073C78.786 71.4378 78.8489 71.2594 78.891 71.0756C78.9462 70.826 78.9187 70.5652 78.8125 70.3325C78.8125 70.3325 78.6488 68.7614 76.5191 67.5389C76.5191 67.5389 76.1394 66.9876 76.0063 66.9658L76.1154 67.9137C76.1154 67.9137 76.8071 67.8048 77.2457 68.1796C77.2457 68.1796 76.1546 67.8854 76.1263 68.0554C76.1263 68.0881 76.207 68.5544 76.207 68.5544C76.207 68.5544 77.4116 68.3713 78.0684 68.9728C78.0684 68.9728 76.8071 68.4454 76.2376 68.7309L76.4078 69.4238C76.4078 69.4238 77.6712 69.1711 78.4459 69.8248C78.4459 69.8248 77.1104 69.3214 76.4558 69.5742L76.7155 70.2279C76.7155 70.2279 77.9527 70.01 78.5943 70.5526C78.5943 70.5526 76.9882 70.1168 76.7853 70.3739C76.897 70.6277 77.0392 70.8669 77.2086 71.0865C77.2086 71.0865 78.1011 70.947 78.4437 71.3044C78.4437 71.3044 77.3417 71.1323 77.3024 71.2456C77.3024 71.2456 77.8676 71.9211 78.3346 72.1172C77.8961 71.9622 77.5057 71.6956 77.2021 71.3436C77.1732 71.6285 77.2285 71.9157 77.3614 72.1695C77.3614 72.1695 76.8857 71.9516 77.0668 71.178C77.0668 71.178 76.6478 70.6354 76.6478 70.5243C76.6478 70.5243 76.3598 71.2586 76.4296 71.7773C76.4296 71.7773 76.0804 71.2347 76.5736 70.3521L76.2987 69.6984C76.2987 69.6984 75.8622 70.6507 75.8928 71.117C75.8928 71.117 75.6222 70.509 76.2419 69.5263L76.0695 68.8486C75.8412 69.2602 75.6673 69.6997 75.5524 70.156C75.5524 70.156 75.4214 69.5393 76.0259 68.6437L75.9626 68.1774C75.9626 68.1774 75.6571 68.7614 75.5851 68.9379C75.5131 69.1144 75.4585 69.1079 75.4585 69.1079C75.5088 68.6958 75.6727 68.3057 75.9321 67.9813C75.9321 67.9813 75.8622 67.0094 75.8033 67.0094Z" fill="#6C63FF"/>
<path opacity="0.1" d="M110.288 62.8866C110.288 62.8866 108.511 67.7852 112.18 68.221C112.348 68.3035 112.539 68.3306 112.724 68.2985C112.909 68.2664 113.079 68.1768 113.21 68.0423C113.21 68.0423 112.952 67.9573 113.19 67.4823C113.273 67.3125 113.335 67.1332 113.375 66.9484C113.431 66.699 113.404 66.4382 113.299 66.2053C113.299 66.2053 113.135 64.6342 111.006 63.4117C111.006 63.4117 110.624 62.8626 110.491 62.8408L110.602 63.7865C110.602 63.7865 111.294 63.6798 111.732 64.0546C111.732 64.0546 110.641 63.7604 110.611 63.9282C110.611 63.9631 110.691 64.4272 110.691 64.4272C110.691 64.4272 111.896 64.2463 112.555 64.8456C112.555 64.8456 111.294 64.3204 110.722 64.6037L110.894 65.2988C110.894 65.2988 112.158 65.0439 112.932 65.6998C112.932 65.6998 111.595 65.1942 110.94 65.447L111.2 66.1007C111.2 66.1007 112.437 65.8828 113.079 66.4254C113.079 66.4254 111.475 65.9896 111.27 66.2489C111.385 66.5036 111.531 66.743 111.706 66.9615C111.706 66.9615 112.596 66.8198 112.941 67.1794C112.941 67.1794 111.839 67.0072 111.8 67.1227C111.8 67.1227 112.363 67.7961 112.83 67.9944C112.392 67.8401 112.002 67.5733 111.699 67.2208C111.671 67.5055 111.725 67.7924 111.857 68.0467C111.857 68.0467 111.383 67.8288 111.564 67.0574C111.564 67.0574 111.145 66.5126 111.143 66.4036C111.143 66.4036 110.857 67.1402 110.925 67.6566C110.925 67.6566 110.576 67.1162 111.069 66.2315L110.794 65.5778C110.794 65.5778 110.357 66.53 110.388 66.9942C110.388 66.9942 110.117 66.3884 110.737 65.4056L110.563 64.7257C110.334 65.1373 110.16 65.5768 110.045 66.0332C110.045 66.0332 109.917 65.4165 110.521 64.5209L110.458 64.0546C110.458 64.0546 110.152 64.6386 110.078 64.8151C110.004 64.9916 109.952 64.985 109.952 64.985C110.003 64.5729 110.168 64.1831 110.427 63.8585C110.427 63.8585 110.349 62.8888 110.288 62.8866Z" fill="#6C63FF"/>
<path opacity="0.1" d="M60.993 102.869C60.993 102.869 59.2146 107.761 62.8849 108.207C63.0531 108.29 63.2433 108.317 63.428 108.285C63.6126 108.253 63.7824 108.163 63.9127 108.029C63.9127 108.029 63.6574 107.944 63.8931 107.469C63.977 107.299 64.04 107.12 64.0807 106.935C64.1371 106.685 64.1095 106.424 64.0022 106.192C64.0022 106.192 63.8385 104.621 61.7088 103.4C61.7088 103.4 61.3291 102.849 61.196 102.827L61.3051 103.773C61.3051 103.773 61.999 103.666 62.4354 104.041C62.4354 104.041 61.3443 103.747 61.316 103.915C61.316 103.949 61.3967 104.414 61.3967 104.414C61.3967 104.414 62.6013 104.233 63.2581 104.832C63.2581 104.832 61.9968 104.307 61.4273 104.59L61.5975 105.285C61.5975 105.285 62.8609 105.03 63.6356 105.686C63.6356 105.686 62.3001 105.181 61.6455 105.433L61.9051 106.087C61.9051 106.087 63.1424 105.869 63.784 106.412C63.784 106.412 62.1801 105.976 61.975 106.235C62.0867 106.489 62.2289 106.728 62.3983 106.948C62.3983 106.948 63.2908 106.806 63.6356 107.166C63.6356 107.166 62.5314 106.994 62.4921 107.109C62.4921 107.109 63.0573 107.782 63.5243 107.981C63.0857 107.827 62.6952 107.561 62.3918 107.209C62.3629 107.494 62.4183 107.78 62.5511 108.033C62.5511 108.033 62.0754 107.815 62.2565 107.044C62.2565 107.044 61.8397 106.499 61.8375 106.39C61.8375 106.39 61.5495 107.127 61.6193 107.643C61.6193 107.643 61.2701 107.103 61.7633 106.218L61.4884 105.564C61.4884 105.564 61.0519 106.516 61.0847 106.981C61.0847 106.981 60.8141 106.375 61.4338 105.392L61.2592 104.714C61.0304 105.126 60.8566 105.565 60.7421 106.022C60.7421 106.022 60.6111 105.403 61.2156 104.509L61.1523 104.041C61.1523 104.041 60.8468 104.625 60.7748 104.801C60.7028 104.978 60.6482 104.971 60.6482 104.971C60.6987 104.559 60.8634 104.169 61.1239 103.845C61.1239 103.845 61.0519 102.869 60.993 102.869Z" fill="#6C63FF"/>
<path opacity="0.1" d="M53.9361 56.7609C53.9361 56.7609 52.1598 61.6508 55.828 62.0975C55.9965 62.1799 56.1866 62.2072 56.3715 62.1755C56.5564 62.1438 56.7266 62.0548 56.858 61.921C56.858 61.921 56.6005 61.836 56.8383 61.3588C56.9206 61.1886 56.9829 61.0094 57.0238 60.8249C57.0797 60.5762 57.0528 60.3161 56.9474 60.084C56.9474 60.084 56.7838 58.5129 54.6518 57.2904C54.6518 57.2904 54.2721 56.7391 54.139 56.7173L54.2503 57.6652C54.2503 57.6652 54.942 57.5562 55.3785 57.931C55.3785 57.931 54.2874 57.6369 54.259 57.8068C54.259 57.8395 54.3398 58.3058 54.3398 58.3058C54.3398 58.3058 55.5443 58.1228 56.2033 58.7242C56.2033 58.7242 54.942 58.1969 54.3703 58.4824L54.5405 59.1753C54.5405 59.1753 55.804 58.9204 56.5808 59.5763C56.5808 59.5763 55.2432 59.0707 54.5885 59.3257L54.8482 59.9794C54.8482 59.9794 56.0855 59.7615 56.727 60.3063C56.727 60.3063 55.1231 59.8704 54.918 60.1276C55.0298 60.3813 55.1719 60.6206 55.3414 60.8401C55.3414 60.8401 56.2339 60.7007 56.5786 61.058C56.5786 61.058 55.4767 60.8859 55.4374 60.9992C55.4374 60.9992 56.0004 61.6747 56.4673 61.8708C56.0291 61.7153 55.6388 61.4488 55.3348 61.0973C55.3059 61.3822 55.3613 61.6693 55.4941 61.9231C55.4941 61.9231 55.0184 61.7052 55.2017 60.9317C55.2017 60.9317 54.7827 60.3891 54.7805 60.2779C54.7805 60.2779 54.4947 61.0123 54.5623 61.5309C54.5623 61.5309 54.211 60.9883 54.7064 60.1058L54.4292 59.4521C54.4292 59.4521 53.9928 60.4043 54.0255 60.8706C54.0255 60.8706 53.7549 60.2627 54.3747 59.2799L54.2001 58.6022C53.9717 59.0138 53.7979 59.4533 53.6829 59.9097C53.6829 59.9097 53.5542 59.293 54.1565 58.3974L54.0954 57.931C54.0954 57.931 53.7877 58.515 53.7157 58.6894C53.6436 58.8637 53.5891 58.8615 53.5891 58.8615C53.6395 58.4491 53.8043 58.0589 54.0648 57.7349C54.0648 57.7349 53.9972 56.7609 53.9361 56.7609Z" fill="#6C63FF"/>
<path opacity="0.1" d="M67.125 83.3897C67.125 83.3897 68.4976 88.4017 71.7533 86.6584C71.9383 86.629 72.1093 86.5419 72.2418 86.4096C72.3743 86.2774 72.4615 86.1066 72.4909 85.9219C72.4909 85.9219 72.2334 86.0003 72.1527 85.4751C72.1219 85.2887 72.0691 85.1066 71.9955 84.9325C71.8988 84.696 71.7261 84.4982 71.5046 84.3703C71.5046 84.3703 70.4637 83.1806 68.0131 83.4072C68.0131 83.4072 67.3847 83.1784 67.2625 83.2372L67.8997 83.9454C67.8997 83.9454 68.4037 83.4595 68.9776 83.5096C68.9776 83.5096 67.9106 83.9018 67.9891 84.0522C68.0066 84.0827 68.3426 84.4139 68.3426 84.4139C68.3426 84.4139 69.2155 83.5706 70.1058 83.6817C70.1058 83.6817 68.7725 83.9781 68.4714 84.5403L69.0104 85.0088C69.0104 85.0088 69.8963 84.074 70.9088 84.1611C70.9088 84.1611 69.5232 84.5185 69.1348 85.1025L69.7283 85.4926C69.7283 85.4926 70.6012 84.597 71.4522 84.6776C71.4522 84.6776 69.8941 85.2507 69.8701 85.5732C70.1085 85.7164 70.3635 85.8298 70.6295 85.911C70.6295 85.911 71.2842 85.2834 71.7621 85.3727C71.7621 85.3727 70.7605 85.8674 70.7954 85.9829C70.7954 85.9829 71.6464 86.2008 72.1374 86.0962C71.6903 86.2228 71.2179 86.2303 70.767 86.118C70.9074 86.3674 71.1184 86.5698 71.3736 86.6998C71.3736 86.6998 70.8586 86.7935 70.5619 86.0591C70.5619 86.0591 69.9072 85.8565 69.8374 85.765C69.8374 85.765 70.0294 86.532 70.3829 86.9155C70.3829 86.9155 69.785 86.6736 69.6781 85.6669L69.0737 85.2899C69.0737 85.2899 69.2722 86.3163 69.5603 86.6802C69.5603 86.6802 68.9886 86.3402 68.9275 85.181L68.395 84.7277C68.4469 85.198 68.5598 85.6594 68.7311 86.1005C68.7311 86.1005 68.2706 85.6647 68.2466 84.5926L67.9258 84.2461C67.9258 84.2461 68.0131 84.8999 68.0546 85.0851C68.0961 85.2703 68.0546 85.303 68.0546 85.303C67.858 84.9369 67.7674 84.5235 67.7927 84.1088C67.7927 84.1088 67.1752 83.3571 67.125 83.3897Z" fill="#6C63FF"/>
<path opacity="0.1" d="M104.361 87.8656C104.361 87.8656 105.734 92.8775 108.987 91.1342C109.173 91.1056 109.344 91.0188 109.477 90.8864C109.61 90.754 109.698 90.5829 109.727 90.3977C109.727 90.3977 109.467 90.4761 109.387 89.9619C109.358 89.7753 109.305 89.5931 109.232 89.4193C109.133 89.183 108.96 88.9855 108.738 88.8571C108.738 88.8571 107.698 87.6673 105.247 87.8961C105.247 87.8961 104.619 87.6651 104.499 87.724L105.134 88.4322C105.134 88.4322 105.638 87.9462 106.212 87.9963C106.212 87.9963 105.144 88.3886 105.225 88.5389C105.24 88.5694 105.579 88.9007 105.579 88.9007C105.579 88.9007 106.452 88.0574 107.342 88.1685C107.342 88.1685 106.006 88.4648 105.705 89.0271L106.246 89.4956C106.246 89.4956 107.119 88.5607 108.143 88.6479C108.143 88.6479 106.759 89.0053 106.371 89.5893L106.964 89.9793C106.964 89.9793 107.837 89.0837 108.686 89.1643C108.686 89.1643 107.128 89.7374 107.106 90.0599C107.344 90.2032 107.598 90.3166 107.863 90.3977C107.863 90.3977 108.518 89.7701 108.996 89.8595C108.996 89.8595 107.997 90.3541 108.029 90.4696C108.029 90.4696 108.88 90.6875 109.373 90.5829C108.926 90.7094 108.453 90.7169 108.001 90.6047C108.142 90.8536 108.353 91.0558 108.608 91.1865C108.608 91.1865 108.093 91.2802 107.796 90.5459C107.796 90.5459 107.141 90.3432 107.073 90.2517C107.073 90.2517 107.263 91.0187 107.617 91.4023C107.617 91.4023 107.019 91.1604 106.912 90.1536L106.308 89.7723C106.308 89.7723 106.506 90.7987 106.796 91.1626C106.796 91.1626 106.225 90.8226 106.164 89.6633L105.629 89.2101C105.681 89.6806 105.794 90.1422 105.967 90.5829C105.967 90.5829 105.505 90.1471 105.481 89.075L105.16 88.7285C105.16 88.7285 105.247 89.3822 105.288 89.5675C105.33 89.7527 105.288 89.7854 105.288 89.7854C105.092 89.4193 105.001 89.0058 105.027 88.5912C105.027 88.5912 104.411 87.8329 104.361 87.8656Z" fill="#6C63FF"/>
<path d="M90.3908 138.198C90.3908 138.198 101.712 134.391 99.3682 120.903L84.9878 117.174L81.6492 128.242L90.3908 138.198Z" fill="#CED7E7"/>
<path opacity="0.1" d="M81.6492 128.242L90.3887 138.198C90.3887 138.198 101.71 134.391 99.366 120.903L81.6492 128.242Z" fill="black"/>
<path d="M34.0785 28.5919C34.0785 28.5919 35.606 31.0739 37.6943 29.834C39.7826 28.5941 37.7794 25.1686 37.7794 25.1686C37.7794 25.1686 33.7795 24.6216 34.0785 28.5919Z" fill="#949494"/>
<path opacity="0.1" d="M37.6943 29.8342C37.448 29.9934 37.1717 30.1006 36.8824 30.1493C36.5931 30.198 36.2969 30.1872 36.0119 30.1175C35.246 29.9236 34.6568 29.3352 34.3404 28.9495C34.246 28.8365 34.1585 28.7179 34.0785 28.5943C33.9716 27.1779 34.4124 26.3346 35.0234 25.8378C35.8635 25.1557 37.0266 25.1274 37.5285 25.1492C37.6834 25.1492 37.7729 25.171 37.7729 25.171L37.8144 25.2407C37.8733 25.3518 38.002 25.5981 38.1395 25.9271C38.6065 27.0058 39.1629 28.9604 37.6943 29.8342Z" fill="black"/>
<path d="M91.5039 120.269L99.3596 120.903L113.98 121.023L102.46 135.187C102.46 135.187 98.8054 135.385 98.0525 135.899C97.2997 136.413 86.7294 136.139 86.7294 136.139L85.0229 128.878L91.5039 120.269Z" fill="#FFA2A2"/>
<path opacity="0.05" d="M91.5039 120.269L99.3596 120.903L113.98 121.023L102.46 135.187C102.46 135.187 98.8054 135.385 98.0525 135.899C97.2997 136.413 86.7294 136.139 86.7294 136.139L85.0229 128.878L91.5039 120.269Z" fill="black"/>
<path d="M83.5587 82.1866L85.3852 85.281L85.7823 90.6764C85.7823 90.6764 87.0545 95.2765 88.0081 96.6253C88.9617 97.9742 89.3588 101.546 89.3588 101.546C89.3588 101.546 89.756 104.878 90.2317 105.59C90.7074 106.303 91.3446 111.474 91.3446 111.474C91.3446 111.474 95.5561 119.883 99.3683 120.914C99.3683 120.914 80.4601 127.102 90.391 138.209C90.391 138.209 83.3209 139.952 81.6515 137.972C79.9822 135.991 75.6135 106.634 75.6135 106.634L76.9643 81.8794L83.5587 82.1866Z" fill="#CED7E7"/>
<path opacity="0.05" d="M83.5587 82.1866L85.3852 85.281L85.7823 90.6764C85.7823 90.6764 87.0545 95.2765 88.0081 96.6253C88.9617 97.9742 89.3588 101.546 89.3588 101.546C89.3588 101.546 89.756 104.878 90.2317 105.59C90.7074 106.303 91.3446 111.474 91.3446 111.474C91.3446 111.474 95.5561 119.883 99.3683 120.914C99.3683 120.914 80.4601 127.102 90.391 138.209C90.391 138.209 83.3209 139.952 81.6515 137.972C79.9822 135.991 75.6135 106.634 75.6135 106.634L76.9643 81.8794L83.5587 82.1866Z" fill="black"/>
<path d="M60.6178 52.0302C60.0872 54.7789 60.2446 57.6158 61.0761 60.289L58.1345 68.6981C58.1345 68.6981 35.7305 56.2424 37.6377 53.2266C38.7178 51.516 38.8553 46.99 38.768 43.3945C38.7047 40.6619 38.5105 38.4697 38.5105 38.4697C38.5105 38.4697 66.0055 41.1696 62.3461 47.4367C61.5179 48.8611 60.9338 50.4137 60.6178 52.0302Z" fill="#FFA2A2"/>
<path opacity="0.1" d="M62.3461 47.4367C61.5179 48.8611 60.9338 50.4137 60.6178 52.0302C56.5375 53.3338 52.131 53.1858 48.1476 51.6114C44.1642 50.037 40.8498 47.1335 38.768 43.3945C38.7047 40.6619 38.5105 38.4697 38.5105 38.4697C38.5105 38.4697 65.999 41.1696 62.3461 47.4367Z" fill="black"/>
<path d="M73.4685 33.9481C73.4704 36.8569 72.7849 39.7251 71.4678 42.3195C70.1507 44.914 68.2391 47.1615 65.8884 48.8793C63.5378 50.5972 60.8143 51.7369 57.9396 52.2058C55.0648 52.6747 52.1197 52.4595 49.3439 51.5779C46.568 50.6962 44.0397 49.1729 41.9643 47.1318C39.889 45.0907 38.3253 42.5893 37.4002 39.8311C36.4752 37.0728 36.215 34.1356 36.6407 31.258C37.0665 28.3804 38.1661 25.6438 39.8504 23.2705C40.1123 22.9029 40.3879 22.5441 40.6774 22.194C42.327 20.1919 44.3797 18.5586 46.7023 17.4C47.9624 16.7704 49.2916 16.2893 50.6629 15.9662C53.1391 15.3804 55.7095 15.3096 58.2143 15.7584C60.719 16.2071 63.1045 17.1658 65.2223 18.5747C67.3401 19.9835 69.1449 21.8125 70.5245 23.9478C71.9041 26.0832 72.829 28.4791 73.2416 30.9867C73.3957 31.9662 73.4716 32.9565 73.4685 33.9481Z" fill="#FFA2A2"/>
<path d="M80.7764 109.957C80.4993 111.435 80.8463 114.135 81.3722 116.882C81.394 117.002 81.418 117.122 81.442 117.242C81.466 117.362 81.5009 117.547 81.5315 117.697C81.7737 118.878 82.0377 120.049 82.2952 121.112C82.5527 122.175 82.784 123.086 82.9804 123.836C83.2772 124.958 83.4801 125.664 83.4801 125.664C83.4801 125.664 83.5063 126.357 83.5412 127.46C83.5609 128.096 83.5827 128.872 83.6045 129.728C83.6045 129.977 83.6198 130.229 83.6263 130.491C83.6372 130.946 83.6481 131.419 83.6591 131.903C83.6591 132.06 83.6591 132.217 83.67 132.376C83.67 132.897 83.6896 133.428 83.6983 133.958C83.7093 134.686 83.718 135.413 83.7223 136.119C83.7223 136.39 83.7223 136.656 83.7223 136.917C83.7223 137.593 83.7223 138.24 83.7223 138.835C83.6983 140.523 83.6307 141.798 83.4867 142.166C83.4365 142.293 83.3907 142.43 83.347 142.574C83.1578 143.25 83.0206 143.94 82.9368 144.638L82.5658 144.335C81.8566 143.751 81.154 143.154 80.4404 142.574C79.2543 141.582 77.9953 140.68 76.674 139.876C76.5845 139.824 76.4951 139.772 76.4034 139.721C76.159 139.58 75.9103 139.447 75.6571 139.321C75.1357 139.058 74.6011 138.822 74.0554 138.615C71.5351 137.656 68.8358 137.307 66.0993 137.366C65.0083 137.782 64.2991 138.081 64.2991 138.081L62.9112 138.499L62.6799 138.569C61.1764 139.026 59.0619 139.676 58.3004 139.946C57.0696 140.382 46.3837 142.602 46.3837 142.602C45.4074 142.868 44.4102 143.051 43.4029 143.147C41.5687 143.662 39.7015 144.052 37.8144 144.315C33.5259 144.863 29.1703 144.512 25.0249 143.286C24.9011 143.294 24.777 143.29 24.6539 143.276C24.7303 143.276 24.8045 143.258 24.8721 143.245L24.6059 143.167L24.2415 143.053C23.6305 142.862 23.0246 142.652 22.4237 142.424L22.0593 142.284C21.4774 142.06 20.9079 141.82 20.3507 141.563L19.9863 141.397C19.4044 141.127 18.8348 140.842 18.2777 140.541C18.0769 140.436 17.8783 140.323 17.6819 140.216C17.0884 139.885 16.5065 139.538 15.9362 139.175C15.8402 138.353 15.79 137.804 15.79 137.804L14.939 133.572L14.8953 133.354L14.2843 130.303L14.2407 130.086L12.9118 123.448L12.8681 123.23L12.2571 120.179L12.2135 119.961L10.8671 113.328L10.8235 113.11L10.2125 110.06L10.1688 109.842L8.83335 103.195L8.7897 102.978L8.1787 99.9377L8.13506 99.7198L7.89284 98.5213L7.52843 96.7061C7.52843 96.7061 6.36534 95.0457 5.05606 93.0823L4.90985 92.8644C4.53671 92.3131 4.15265 91.74 3.7795 91.1778C3.65512 90.9925 3.5351 90.8095 3.41509 90.6286C3.23324 90.3541 3.05721 90.086 2.88701 89.8245L2.76917 89.6437L2.74517 89.6066C0.864159 86.6997 2.12326 85.4358 2.12326 85.4358C2.12326 85.4358 2.91319 84.3681 3.93225 82.956C3.98244 82.8841 4.03481 82.8122 4.08937 82.7381C4.5258 82.128 5.00587 81.4612 5.47721 80.7944L5.84163 80.2757C5.9791 80.0818 6.1144 79.8879 6.24532 79.6961C6.2977 79.6242 6.34789 79.5501 6.39589 79.4782C7.40186 78.0269 8.23108 76.7609 8.40128 76.312C8.66751 75.6038 10.3652 73.5096 12.0564 71.6727C13.3897 70.2214 14.7164 68.9314 15.3121 68.6219C16.6629 67.9094 17.2193 65.6061 17.2193 65.6061C17.2193 65.6061 20.1587 64.5775 20.5558 63.7843C20.953 62.9912 26.5153 59.4262 26.5153 59.4262C26.5153 59.4262 28.7651 57.9792 29.675 57.1076C29.8038 56.9936 29.9162 56.8623 30.0089 56.7175C30.3253 56.151 32.3918 55.6846 33.2319 55.5169C33.4501 55.4733 33.5854 55.4493 33.5854 55.4493C33.9246 54.8339 34.3533 54.2721 34.8576 53.7823C35.2002 53.4794 35.6279 52.4356 35.9879 51.4245C36.3785 50.3219 36.6819 49.2607 36.6819 49.2607C37.319 47.1186 38.5891 47.7527 38.5891 47.7527C38.5873 48.0453 38.6151 48.3373 38.672 48.6244C39.2022 51.2393 42.0827 52.3288 43.5949 53.5513C45.2642 54.898 47.885 58.3911 49.9515 59.1036C51.6623 59.6942 53.6459 61.9212 54.2743 62.6643L54.3223 62.7209C54.4271 62.843 54.4794 62.9127 54.4794 62.9127C54.4794 62.9127 55.6512 62.8517 56.3648 62.8386H56.6245C56.7696 62.8241 56.9075 62.7681 57.0216 62.6774C57.7308 62.1958 58.787 60.7837 59.2474 60.459C59.8017 60.0603 60.3603 53.6341 60.3603 53.6341L60.3887 53.621C62.3679 52.6949 64.4911 61.9648 64.4911 61.9648C64.4911 61.9648 68.2248 63.0761 68.5434 63.8693C68.6044 64.0262 68.8859 64.3051 69.3093 64.6429C71.2368 66.1139 73.2885 67.4154 75.4411 68.5326C75.4891 68.5566 75.5349 68.5805 75.5829 68.6001C75.6262 68.6234 75.6706 68.6445 75.7161 68.6633C75.7968 68.7026 75.8754 68.7374 75.9495 68.7701C76.0674 68.8224 76.1765 68.866 76.2769 68.9009L76.4078 68.9466C76.7206 69.0505 77.0151 69.2027 77.2807 69.3977C77.3592 69.4544 77.4378 69.5132 77.5141 69.5764C77.8113 69.8233 78.0845 70.0977 78.3303 70.3957C78.3674 70.4393 78.4023 70.4851 78.4372 70.5286C78.603 70.7357 78.7514 70.9405 78.8736 71.1301C79.0742 71.4226 79.2571 71.7267 79.4213 72.0409C79.4213 72.0409 82.6771 77.5955 83.7114 78.2274C84.7458 78.8593 85.3808 85.2898 85.3808 85.2898L81.8893 98.2141C81.8893 98.2141 81.7257 101.483 81.4202 104.817C81.25 106.686 81.0339 108.589 80.7764 109.957Z" fill="#CED7E7"/>
<path d="M54.4793 63.3049C54.4793 63.3049 52.1378 64.5732 50.3092 64.693C50.0698 64.7042 49.83 64.6903 49.5935 64.6516C47.6775 64.3618 44.8669 62.7885 44.8669 62.7885L48.1642 59.1777L52.1749 61.1629L53.6501 62.5335L54.4793 63.3049Z" fill="#63667E"/>
<path opacity="0.1" d="M73.2326 30.9867C73.1497 31.1039 73.0554 31.2126 72.9511 31.3114C71.8033 32.4009 69.7652 31.9499 68.2006 31.6971C66.841 31.4751 65.5129 31.0918 64.2444 30.5552C63.1402 30.0845 61.8156 29.5093 60.8228 30.1848C60.4409 30.4419 60.179 30.8538 59.7819 31.0804C59.3847 31.307 58.8785 31.3223 58.4093 31.3288C56.8818 31.3288 55.3543 31.3462 53.8639 31.0019C51.6403 30.4833 49.3403 29.178 47.2258 30.0388C45.5718 30.71 44.6749 32.5077 44.2276 34.2357C44.0094 35.0834 43.8479 35.979 43.3547 36.6981C42.8615 37.4172 41.908 37.9271 41.0962 37.5894C39.8982 37.0903 39.7214 35.0594 38.2769 34.957C36.6904 34.8459 36.7101 36.4824 37.1727 37.6656C37.8579 39.4089 38.7548 41.1522 38.794 42.9695C37.0891 39.9201 36.2834 36.4509 36.4703 32.9633C36.6572 29.4757 37.829 26.1122 39.8502 23.2618C40.2019 23.0443 40.4772 22.7229 40.6379 22.3422C40.6541 22.2907 40.6672 22.2384 40.6772 22.1853C40.7972 21.5774 40.459 20.9389 40.4394 20.3026C40.363 18.7489 42.0476 17.6659 43.5926 17.4698C44.6204 17.339 45.6721 17.4393 46.7021 17.4066C47.2209 17.3952 47.7369 17.3265 48.2405 17.2017C49.1095 16.9417 49.9231 16.5244 50.6409 15.9705C53.1171 15.3847 55.6875 15.314 58.1922 15.7628C60.6969 16.2115 63.0824 17.1702 65.2002 18.5791C67.318 19.9879 69.1229 21.8169 70.5025 23.9522C71.8821 26.0875 72.807 28.4835 73.2195 30.9911L73.2326 30.9867Z" fill="black"/>
<path d="M73.6059 29.7031C73.4972 30.1341 73.2705 30.5264 72.9513 30.8362C71.8035 31.9257 69.7654 31.4725 68.2008 31.2197C66.8411 31.0026 65.5127 30.6221 64.2445 30.0866C63.1404 29.6181 61.8158 29.0428 60.8229 29.7183C60.4411 29.9754 60.1792 30.3873 59.7821 30.6139C59.3849 30.8405 58.8786 30.8558 58.4095 30.8602C56.882 30.8711 55.3545 30.8798 53.8641 30.5355C51.6405 30.0147 49.3405 28.7116 47.226 29.5701C45.5719 30.2413 44.6751 32.0412 44.2277 33.7693C44.0095 34.6169 43.848 35.5125 43.3549 36.2295C42.8617 36.9464 41.9081 37.4606 41.0964 37.1229C39.8984 36.6239 39.7216 34.593 38.277 34.4905C36.6906 34.3794 36.7102 36.0159 37.1729 37.1992C37.9846 39.2628 39.0888 41.3155 38.7265 43.5033C38.3665 43.5033 37.7708 43.4902 37.4173 43.4815C37.6922 43.013 37.1685 42.4551 36.647 42.2961C36.1254 42.137 35.5166 42.1392 35.1195 41.76C34.7223 41.3808 34.7201 40.7947 34.7616 40.2695C34.8521 39.147 35.1271 38.0471 35.5755 37.0139C35.8614 36.3602 36.2302 35.652 36.012 34.9678C35.881 34.6576 35.7233 34.3594 35.5406 34.0765C35.0867 33.2049 35.1937 32.1153 35.5821 31.2154C35.7479 30.8318 35.8679 30.4701 36.0054 30.1258C36.179 29.6364 36.4303 29.178 36.7495 28.7682C37.2492 28.1472 37.738 27.2124 37.186 26.6349C37.0463 26.4889 37.3256 26.3887 37.2361 26.1991C37.2203 26.1667 37.2093 26.1322 37.2034 26.0967C37.1778 25.8671 37.2333 25.6358 37.3605 25.4429C37.3863 25.3928 37.4147 25.3441 37.4456 25.2969C37.4707 25.2471 37.4992 25.1991 37.5307 25.1531C38.0139 24.3475 38.6561 23.6483 39.4183 23.0982C39.8918 22.7561 40.4461 22.4271 40.6337 21.8736C40.852 21.2198 40.4679 20.5247 40.4352 19.8339C40.3588 18.2802 42.0434 17.1972 43.5884 17.0011C45.1333 16.805 46.735 17.1297 48.2407 16.7309C50.377 16.1687 51.8783 14.286 53.8183 13.2291C54.8795 12.6624 56.0564 12.3455 57.2591 12.3024C58.4617 12.2594 59.6583 12.4914 60.7575 12.9807C63.0225 14.0136 64.7312 16.1011 67.0966 16.8856C67.9345 17.1645 68.8423 17.2757 69.5973 17.7376C70.4702 18.2737 71.0005 19.2107 71.4543 20.1347C72.1461 21.5358 72.2857 22.9435 72.7636 24.4275C73.1433 25.6042 73.6692 27.1426 73.7129 28.498C73.7374 28.9028 73.7014 29.3089 73.6059 29.7031Z" fill="#896363"/>
<g opacity="0.1">
<path d="M37.4696 26.9732C37.5045 26.8337 37.5079 26.6882 37.4796 26.5473C37.4513 26.4063 37.392 26.2734 37.3059 26.1582C37.3626 26.3282 37.1161 26.4262 37.2513 26.5679C37.3591 26.681 37.4345 26.821 37.4696 26.9732Z" fill="black"/>
<path d="M37.2995 25.6592C37.2738 25.7352 37.2584 25.8144 37.2537 25.8945C37.2951 25.8248 37.3519 25.7529 37.2995 25.6592Z" fill="black"/>
<path d="M73.0125 30.3048C71.8625 31.3943 69.8266 30.9433 68.2576 30.6883C66.8989 30.4698 65.5719 30.0871 64.3058 29.5486C63.1994 29.0779 61.877 28.5027 60.882 29.1782C60.5023 29.4353 60.2404 29.8472 59.8411 30.0738C59.4418 30.3004 58.9377 30.3157 58.4685 30.32C56.941 30.32 55.4135 30.3396 53.921 29.9932C51.6995 29.4745 49.3996 28.1736 47.2851 29.03C45.631 29.7033 44.7341 31.5011 44.2868 33.2291C44.0686 34.0768 43.9093 34.9724 43.4139 35.6915C42.9186 36.4106 41.965 36.9205 41.1554 36.5849C39.9574 36.0837 39.7807 34.055 38.3361 33.9526C37.2079 33.872 36.8937 34.6782 36.9701 35.5738C37.0355 34.8896 37.4065 34.3623 38.3361 34.4276C39.7807 34.53 39.9574 36.561 41.1554 37.06C41.965 37.3977 42.9208 36.89 43.4139 36.1665C43.9071 35.4431 44.0686 34.5518 44.2868 33.7063C44.7341 31.9783 45.631 30.1784 47.2851 29.5072C49.3996 28.6487 51.6995 29.943 53.921 30.4704C55.4048 30.8169 56.9454 30.806 58.4685 30.7951C58.9377 30.7951 59.433 30.782 59.8411 30.551C60.2492 30.32 60.4958 29.9125 60.882 29.6532C61.877 28.9799 63.1994 29.5552 64.3058 30.0237C65.5722 30.5619 66.8991 30.9453 68.2576 31.1655C69.8266 31.4183 71.8625 31.8737 73.0125 30.7798C73.6366 30.1849 73.8243 29.3242 73.7828 28.3828C73.7479 29.1302 73.5297 29.8079 73.0125 30.3048Z" fill="black"/>
<path d="M40.5115 19.4399C40.4994 19.5485 40.4951 19.6577 40.4984 19.7668C40.5202 20.2201 40.6926 20.6733 40.7472 21.1157C40.8279 20.5731 40.577 20.0065 40.5115 19.4399Z" fill="black"/>
<path d="M36.0774 34.9006C36.0954 34.9658 36.1092 35.032 36.1188 35.0989C36.1542 34.8741 36.1401 34.6443 36.0774 34.4256C35.9473 34.1143 35.7895 33.8153 35.606 33.5321C35.4421 33.2098 35.3449 32.8578 35.3202 32.4971C35.2758 33.0178 35.3746 33.5407 35.606 34.0094C35.7899 34.2915 35.9477 34.5898 36.0774 34.9006Z" fill="black"/>
<path d="M38.7856 42.9592L37.509 42.9396C37.5388 43.0166 37.5507 43.0993 37.5439 43.1816C37.5371 43.2638 37.5117 43.3435 37.4697 43.4146C37.8298 43.4146 38.4277 43.4277 38.779 43.4364C38.8401 43.0634 38.8613 42.6851 38.8423 42.3076C38.8373 42.5258 38.8184 42.7434 38.7856 42.9592Z" fill="black"/>
<path d="M36.6972 41.7537C36.1757 41.5969 35.569 41.5947 35.1806 41.2133C34.952 40.9636 34.8231 40.6387 34.8184 40.3003C34.7856 40.8015 34.8184 41.3419 35.1806 41.6906C35.569 42.0719 36.1757 42.0741 36.6972 42.231C36.8669 42.2803 37.0247 42.3637 37.1609 42.4761C37.2971 42.5885 37.4089 42.7276 37.4893 42.8847C37.7097 42.4336 37.2035 41.9041 36.6972 41.7537Z" fill="black"/>
</g>
<path opacity="0.1" d="M76.3967 139.721C76.1523 139.58 75.9036 139.447 75.6504 139.32C75.129 139.058 74.5944 138.822 74.0487 138.614C71.5284 137.655 68.829 137.307 66.0926 137.366C65.0016 137.782 64.2924 138.08 64.2924 138.08L62.9045 138.499L62.6732 138.568C62.658 138.416 62.6405 138.263 62.6252 138.109C62.6099 137.954 62.5925 137.806 62.575 137.653C62.0862 133.031 61.7022 128.283 61.7022 128.283V124.182V123.705L61.676 111.622L61.4578 107.638L61.3552 105.875L61.3356 105.54L61.2963 104.851L61.2745 104.442C61.2263 104.312 61.1855 104.179 61.1523 104.045C61.137 103.991 61.1217 103.93 61.1086 103.866C61.0541 103.648 60.9952 103.367 60.9341 103.062C60.5347 101.058 60.035 97.6777 60.0045 96.9913C59.9652 96.0761 59.1709 90.6022 59.1709 90.6022C59.0901 87.5885 56.5523 81.9142 55.9129 80.8442C55.2736 79.7743 54.56 73.346 54.8 72.9995C54.9244 72.8143 55.0052 71.7182 55.0554 70.7071C55.0554 70.5916 55.0663 70.4783 55.0706 70.3671C55.1034 69.5761 55.1186 68.9159 55.1186 68.9159L57.615 68.4234L58.2849 68.2926L58.3373 68.2817L58.3591 68.3253C58.4311 68.4582 58.6559 68.8832 58.9199 69.441C58.9505 69.4999 58.9789 69.563 59.0094 69.6262C59.0225 69.6568 59.0378 69.6873 59.0531 69.7178C59.5419 70.7855 60.107 72.191 60.083 72.9995C60.0437 74.429 61.6738 77.8807 61.6738 77.8807C61.8309 78.6738 65.2874 86.5665 65.2874 86.5665C65.2874 86.5665 68.1089 94.3023 67.9496 95.5727C67.7903 96.8431 69.3004 105.252 69.3004 105.252L70.8497 113.901C71.6026 115.605 72.5954 119.532 72.5954 119.532L72.9729 121.759L73.045 122.184L74.0509 128.126L74.5441 131.038C74.5441 131.038 74.7514 132.585 75.0656 134.306C75.0918 134.461 75.1224 134.618 75.1529 134.775C75.3465 135.908 75.6214 137.026 75.9756 138.12C76.1512 138.644 76.2919 139.179 76.3967 139.721Z" fill="black"/>
<path d="M76.6673 139.876C76.5779 139.824 76.4884 139.772 76.3967 139.722C76.1523 139.58 75.9036 139.447 75.6505 139.321C75.129 139.058 74.5944 138.823 74.0488 138.615C71.5284 137.656 68.8291 137.307 66.0927 137.366C65.0016 137.782 64.2924 138.081 64.2924 138.081L62.9046 138.499C62.8871 138.347 62.8718 138.194 62.8544 138.039C62.8369 137.885 62.8238 137.76 62.8107 137.621C62.3219 133.01 61.9379 128.284 61.9379 128.284V124.143V123.666L61.9117 111.614L61.6935 107.809L61.6498 107.02L61.6193 106.486L61.58 105.78L61.5407 105.063L61.5123 104.547V104.433C61.5123 104.422 61.5123 104.409 61.4971 104.396C61.4556 104.279 61.4054 104.1 61.3509 103.873L61.3247 103.764C61.3138 103.714 61.3007 103.66 61.2898 103.605C60.8795 101.747 60.2773 97.7392 60.2445 96.9874C60.2052 96.0722 59.4109 90.5983 59.4109 90.5983C59.3302 87.5846 56.7924 81.9103 56.153 80.8403C55.5136 79.7704 54.8023 73.342 55.0401 72.9956C55.1776 72.7777 55.2583 71.4549 55.3107 70.3632C55.3107 70.2761 55.3107 70.1911 55.3107 70.1105C55.3391 69.4371 55.35 68.9119 55.35 68.9119L57.6718 68.4543L58.261 68.3388L58.3526 68.3214L58.5708 68.2778C58.5708 68.2778 58.8567 68.8052 59.1993 69.5308L59.2429 69.6223C59.7426 70.6988 60.334 72.1632 60.3165 72.9956C60.2773 74.4251 61.9073 77.8767 61.9073 77.8767C62.0644 78.6699 65.5209 86.5626 65.5209 86.5626C65.5209 86.5626 68.3425 94.2984 68.1832 95.5688C68.0239 96.8392 69.5339 105.248 69.5339 105.248L71.0832 113.897C71.8361 115.601 72.8289 119.528 72.8289 119.528L73.1803 121.602L73.2523 122.023L74.0444 126.712L74.7754 131.034C74.7754 131.034 74.9936 132.574 75.2948 134.302C75.3231 134.459 75.3515 134.616 75.3821 134.775C75.5753 135.913 75.8503 137.036 76.2047 138.135C76.3982 138.705 76.5527 139.286 76.6673 139.876Z" fill="#63667E"/>
<path d="M74.6992 27.96C74.6992 27.96 73.8656 29.0321 73.1127 29.0321C72.3599 29.0321 69.4293 28.9123 67.9018 28.4372C66.3743 27.9622 58.8852 27.6026 58.8852 27.6026C58.8852 27.6026 48.2799 27.6419 47.9221 27.2845C47.5642 26.9271 41.3276 25.0226 40.6926 25.1424C40.5595 25.1686 40.2344 25.2253 39.8001 25.2972L39.3026 25.3778C38.5498 25.4976 37.6093 25.6371 36.7495 25.7395C35.6868 25.8637 34.7528 25.9269 34.4561 25.818V24.9049C34.4561 24.9049 35.6868 23.1181 35.7653 22.606C35.8439 22.0939 36.8782 14.6697 39.5797 12.0134C40.6958 9.88291 42.5019 8.193 44.7034 7.21938C48.3585 5.63082 52.0136 4.28414 52.0136 4.28414L52.653 4.19262L54.7151 3.88755C54.7778 3.82523 54.8457 3.76837 54.918 3.71758C55.4897 3.28176 57.2224 2.33385 59.4809 4.37131L59.8802 5.0076C59.8802 5.0076 66.8303 6.63321 70.0468 12.3054C73.2633 17.9776 73.4248 23.5321 73.6626 26.0707C73.6626 26.0707 73.5033 26.7855 73.8219 27.0622C73.9373 27.164 74.0473 27.2716 74.1514 27.3847C74.1798 27.4131 74.2082 27.4414 74.2344 27.4719C74.326 27.5634 74.4111 27.6593 74.4809 27.7378C74.4893 27.7439 74.4966 27.7512 74.5028 27.7595C74.5198 27.7802 74.538 27.7998 74.5573 27.8184L74.6992 27.96Z" fill="#DCDCDC"/>
<path opacity="0.05" d="M74.6991 27.9599C74.6991 27.9599 73.8655 29.032 73.1126 29.032C72.3598 29.032 69.4292 28.9122 67.9017 28.4371C66.3742 27.9621 58.8851 27.6025 58.8851 27.6025C58.8851 27.6025 48.2799 27.6417 47.922 27.2844C47.5641 26.927 41.3275 25.0225 40.6925 25.1423C40.5594 25.1685 40.2343 25.2251 39.8 25.297L39.6866 24.5997L39.6582 24.4276C39.6582 24.4276 51.6949 21.8497 59.7186 23.2007C67.7424 24.5518 73.6625 26.0554 73.6625 26.0554C73.6625 26.0554 73.5033 26.7701 73.8218 27.0469C73.9372 27.1486 74.0472 27.2562 74.1514 27.3694C74.1797 27.3977 74.2081 27.426 74.2343 27.4565C74.3259 27.548 74.411 27.6439 74.4809 27.7224C74.4892 27.7285 74.4965 27.7358 74.5027 27.7442C74.5198 27.7648 74.538 27.7844 74.5572 27.803L74.6991 27.9599Z" fill="black"/>
<path opacity="0.1" d="M73.6059 29.7034C72.1199 29.8189 69.3813 29.4572 68.1833 29.2807C67.8429 29.2306 67.509 29.1696 67.173 29.0955C65.8877 28.8165 61.9358 28.0342 59.5355 28.396C56.6354 28.8318 48.4524 28.0386 48.4524 28.0386C48.4524 28.0386 43.4073 27.0079 41.38 26.1755C40.6359 25.8682 39.3921 25.7723 38.1548 25.9249C37.8393 25.9642 37.5261 26.0202 37.2165 26.0927C35.5275 26.4914 34.1026 27.4001 34.3492 28.9495C34.2548 28.8365 34.1673 28.7178 34.0873 28.5943C33.9804 27.1779 34.4212 26.3346 35.0322 25.8377L35.1762 25.7789C35.9226 25.5671 36.6822 25.4048 37.45 25.2929C37.57 25.2733 37.6944 25.2559 37.821 25.2406C39.9922 24.9486 43.1323 24.8833 45.7814 26.2147C45.7814 26.2147 48.2429 27.3674 49.9122 27.3674C51.5816 27.3674 65.1654 27.4873 68.3448 28.3982C68.9777 28.5808 69.6232 28.717 70.276 28.8056C71.4351 28.9549 72.613 28.844 73.7238 28.481C73.7465 28.8921 73.7068 29.3042 73.6059 29.7034Z" fill="black"/>
<path opacity="0.1" d="M74.6992 27.9598C74.6992 27.9598 73.8656 29.0319 73.1127 29.0319C72.3599 29.0319 69.4293 28.912 67.9018 28.437C66.3743 27.9619 58.8852 27.6024 58.8852 27.6024C58.8852 27.6024 48.2799 27.6416 47.9221 27.2842C47.5642 26.9269 41.3276 25.0223 40.6926 25.1422C40.5595 25.1683 40.2344 25.225 39.8001 25.2969L39.3026 25.3775C38.4384 25.3731 37.5783 25.495 36.7495 25.7393C35.6868 25.8635 34.7528 25.9267 34.4561 25.8177V25.6369C34.6849 25.5043 34.9234 25.3892 35.1696 25.2926C36.6421 24.8808 38.1585 24.6452 39.6867 24.5909C41.5917 24.5212 43.8196 24.7434 45.777 25.7284C45.777 25.7284 48.2385 26.8811 49.9078 26.8811C51.5772 26.8811 65.161 26.9988 68.3404 27.9118C68.9736 28.0927 69.619 28.2282 70.2716 28.3171C71.7035 28.4973 73.1576 28.2888 74.4809 27.7135C74.4893 27.7197 74.4966 27.727 74.5028 27.7353C74.5198 27.7559 74.5381 27.7756 74.5573 27.7942L74.6992 27.9598Z" fill="black"/>
<path d="M34.3797 28.912C34.3797 28.912 31.7175 26.8876 35.174 25.5388C35.174 25.5388 41.212 23.6756 45.7814 25.9746C45.7814 25.9746 48.2429 27.123 49.9122 27.123C51.5815 27.123 65.1654 27.2428 68.3448 28.1559C68.978 28.337 69.6234 28.4724 70.276 28.5612C71.9675 28.766 73.6809 28.4408 75.1793 27.6307C75.3975 27.5108 75.5939 27.4498 75.6528 27.5196C75.8513 27.7593 75.6942 29.1474 73.9463 29.4241C72.5825 29.642 69.4839 29.2302 68.1811 29.0406C67.8429 28.9905 67.5068 28.9273 67.173 28.8554C65.8877 28.5764 61.9358 27.7941 59.5245 28.1559C56.6267 28.5917 48.4414 27.7985 48.4414 27.7985C48.4414 27.7985 43.3985 26.7678 41.3713 25.9332C39.3441 25.0986 33.6247 25.8177 34.3797 28.912Z" fill="#B8B8B8"/>
<path opacity="0.1" d="M56.8229 7.64222C56.6047 7.32843 53.8007 5.08614 52.6572 4.17963L54.7193 3.87456C54.782 3.81225 54.8499 3.75538 54.9223 3.70459C56.4214 5.27572 56.8229 7.64222 56.8229 7.64222Z" fill="black"/>
<path opacity="0.1" d="M47.7278 19.6683L46.8135 21.0172L50.3093 20.8995L50.3878 19.3916L47.7278 19.6683Z" fill="black"/>
<path opacity="0.1" d="M69.0583 21.2964L69.4555 22.5254L71.6813 22.8828L70.7277 21.4141L69.0583 21.2964Z" fill="black"/>
<path opacity="0.1" d="M30.8445 62.5552C31.0823 62.9518 38.9075 73.2327 40.974 72.9473C43.0405 72.6618 30.8445 62.5552 30.8445 62.5552Z" fill="black"/>
<path opacity="0.1" d="M57.063 71.9517C57.063 71.9517 58.9702 73.7777 58.6909 74.4903C58.4116 75.2029 57.063 71.9517 57.063 71.9517Z" fill="black"/>
<path opacity="0.1" d="M36.2477 84.4878C36.2477 84.4878 34.5784 92.302 35.4534 92.5504C36.3285 92.7989 36.2477 84.4878 36.2477 84.4878Z" fill="black"/>
<path opacity="0.1" d="M57.698 114.834C57.9751 115.627 60.2795 120.785 60.7966 121.062C61.3138 121.339 57.698 114.834 57.698 114.834Z" fill="black"/>
<path opacity="0.1" d="M84.4729 93.6509C84.3922 93.9276 82.4064 95.5554 82.8429 96.1503C83.2793 96.7452 84.4729 93.6509 84.4729 93.6509Z" fill="black"/>
<path opacity="0.1" d="M69.0582 108.129C69.0189 108.329 68.6218 112.487 69.3768 113.287C70.1318 114.087 69.0582 108.129 69.0582 108.129Z" fill="black"/>
<path opacity="0.1" d="M89.4134 129.728C88.8373 130.049 88.2416 130.358 87.635 130.654C86.9803 130.972 86.3257 131.275 85.6579 131.561C85.3917 131.676 85.1255 131.79 84.8615 131.899C84.4599 132.064 84.0628 132.223 83.67 132.376C82.4764 132.842 81.3264 133.247 80.303 133.59C79.9058 133.722 79.5261 133.844 79.1726 133.958C77.392 134.522 76.2093 134.829 76.2093 134.829C75.9391 134.772 75.6626 134.749 75.3866 134.762C75.3102 134.762 75.2317 134.762 75.1509 134.762C74.7814 134.789 74.4135 134.835 74.0489 134.901C71.6115 135.337 68.1681 136.56 66.0928 137.359C65.0018 137.776 64.2926 138.074 64.2926 138.074L62.9047 138.492L62.6734 138.562C61.1699 139.02 59.0554 139.669 58.2939 139.939C57.0631 140.375 46.3772 142.596 46.3772 142.596C45.4009 142.862 44.4037 143.044 43.3964 143.141C40.9141 143.368 38.4191 143.425 35.9291 143.31C33.4283 143.472 29.3826 142.923 27.0281 142.552L26.6528 142.493C25.7428 142.345 25.1646 142.238 25.1646 142.238L25.4701 141.818L31.735 133.186L31.7721 133.134L37.6093 125.095L37.8275 124.803L38.3578 124.073C38.3578 124.073 38.6764 123.638 39.9028 123.609C40.0468 123.609 40.2039 123.609 40.3763 123.609C41.4064 123.692 42.4227 123.899 43.4029 124.226L43.6866 124.311C47.9134 125.52 54.4467 125.217 54.4467 125.217C54.4467 125.217 58.5121 124.564 61.7067 124.171L61.9446 124.141C62.9885 123.994 64.0397 123.903 65.0934 123.869C67.0399 123.908 71.2514 122.877 71.2514 122.877C72.157 122.683 72.5389 122.52 73.0495 122.156C73.1172 122.108 73.1892 122.056 73.2677 121.999C73.4859 121.835 73.7369 121.635 74.0599 121.387C74.649 120.936 75.4761 120.323 76.7766 119.465C76.8901 119.391 77.0101 119.316 77.1389 119.247C77.2676 119.177 77.4313 119.083 77.5884 119.005C78.8479 118.409 80.1758 117.97 81.5424 117.697C82.676 117.454 83.8264 117.296 84.9837 117.225H85.1561C88.4293 117.05 91.7723 117.61 93.7275 119.447C94.0694 119.77 94.3673 120.136 94.6135 120.537C94.7329 120.727 94.8394 120.925 94.9321 121.129C95.1104 121.52 95.243 121.929 95.327 122.35C95.343 122.428 95.3561 122.507 95.3663 122.585C95.3663 122.609 95.3663 122.631 95.3663 122.655C95.3663 122.718 95.3794 122.781 95.3838 122.844C95.5583 125.453 92.8481 127.811 89.4134 129.728Z" fill="black"/>
<path d="M25.1646 141.77C25.1646 141.77 32.2347 143.077 35.9291 142.84C35.9291 142.84 42.7221 143.197 46.3772 142.127C46.3772 142.127 57.0697 139.904 58.2939 139.468C59.518 139.033 64.2926 137.603 64.2926 137.603C64.2926 137.603 73.5885 133.716 76.2093 134.35C76.2093 134.35 96.7869 129.035 95.3161 121.855C93.8453 114.675 80.8572 116.303 76.7679 118.998C72.6786 121.694 73.2765 121.975 71.2471 122.411C71.2471 122.411 67.0355 123.441 65.0891 123.402C63.1426 123.363 54.4424 124.751 54.4424 124.751C54.4424 124.751 47.6101 125.069 43.4007 123.759C39.1914 122.45 38.3556 123.6 38.3556 123.6L25.1646 141.77Z" fill="#FFA2A2"/>
<path opacity="0.1" d="M40.4963 123.134C40.4973 123.143 40.4973 123.152 40.4963 123.16C40.481 123.322 40.439 123.481 40.3719 123.629C39.5339 125.682 34.7769 131.219 34.7769 131.219C34.56 131.876 34.2982 132.519 33.9935 133.141C33.338 134.47 32.583 135.749 31.735 136.965C30.4779 138.785 29.1054 140.522 27.626 142.167H27.6151C27.4268 142.306 27.2308 142.435 27.0281 142.552C26.5153 142.857 25.745 143.234 25.0183 143.28C24.8946 143.287 24.7704 143.284 24.6474 143.269C24.7237 143.269 24.7979 143.252 24.8656 143.239L24.5993 143.16L24.2349 143.047C23.6239 142.855 23.018 142.645 22.4172 142.417L22.0528 142.278C21.4709 142.054 20.9013 141.813 20.3442 141.556L19.9797 141.391C19.3978 141.121 18.8283 140.835 18.2711 140.534C18.0704 140.43 17.8718 140.316 17.6754 140.21C17.0819 139.878 16.5 139.531 15.9297 139.168C15.3245 138.783 14.7324 138.381 14.1534 137.963C13.717 137.155 13.3569 136.438 13.1605 136.052C12.8027 135.335 12.7721 134.309 12.8158 133.566C12.8158 133.489 12.8158 133.417 12.8289 133.348C12.866 132.881 12.9227 132.561 12.9227 132.561C12.5994 132.129 12.3076 131.675 12.0498 131.201C11.9017 130.966 11.8175 130.697 11.8054 130.419C11.8153 130.308 11.805 130.195 11.7749 130.088C11.6069 129.399 10.8846 128.216 10.2168 127.473C9.7193 126.926 9.68875 124.882 9.73676 123.433C9.76513 122.561 9.81968 121.921 9.81968 121.921C9.7219 121.857 9.64873 121.763 9.61238 121.652C9.43691 121.176 9.31826 120.68 9.25887 120.175C9.25887 120.103 9.23923 120.031 9.22832 119.957C9.08867 118.957 9.02538 117.952 9.02538 117.952C7.4106 116.778 6.64248 114.945 6.28461 113.311L6.23878 113.093C6.04224 112.089 5.95881 111.065 5.99002 110.042C5.99002 109.944 5.99002 109.87 5.99002 109.824C5.99002 109.779 5.99002 109.77 5.99002 109.77C5.99002 109.77 6.20387 105.048 6.80178 103.204C6.82578 103.126 6.85197 103.054 6.87815 102.986C6.9222 102.871 6.97931 102.76 7.04836 102.657C7.26657 102.367 7.42151 101.821 7.55025 101.173C7.63972 100.724 7.71391 100.225 7.76847 99.7286C7.81866 99.3146 7.85794 98.9027 7.88849 98.5214C7.97359 97.5016 7.99977 96.7062 7.99977 96.7062L7.59608 94.7189C7.48479 94.1763 7.39969 93.6293 7.34077 93.0824C7.34077 93.0105 7.32331 92.9385 7.31458 92.8645C7.21252 91.8544 7.19428 90.8377 7.26003 89.8246C7.26003 89.7505 7.26003 89.6786 7.27312 89.6067C7.44351 87.2993 8.04758 85.0446 9.05375 82.9605L9.16286 82.7426C9.30833 82.452 9.46108 82.1665 9.62111 81.8862C9.73676 81.6792 9.85896 81.4743 9.98553 81.2717C10.321 80.729 10.6852 80.2045 11.0766 79.7005C11.1333 79.6264 11.1923 79.5545 11.2512 79.4826C11.9321 78.6396 12.6888 77.8606 13.5119 77.1553C15.7158 75.2639 17.7387 74.4424 19.576 74.3792C27.6107 74.0959 32.1168 88.2862 32.8457 90.7725C32.9155 91.0122 32.9504 91.143 32.9504 91.143C32.9504 91.143 36.2062 94.3964 35.2526 95.8237C35.0677 96.1379 34.9551 96.4892 34.9231 96.8522C34.6612 98.772 35.4119 101.934 35.4119 101.934C35.4119 101.934 35.6781 102.805 36.4549 104.893L36.6841 105.503C37.1707 106.811 37.2841 109.005 37.0048 110.971C36.7364 112.853 36.1058 114.518 35.0955 114.945C33.029 115.817 33.5854 116.689 34.0611 117.405C34.3438 117.919 34.5797 118.458 34.7659 119.014C35.0649 119.818 35.342 120.663 35.4468 120.992C35.4773 121.084 35.4926 121.134 35.4926 121.134C35.7821 121.022 36.0827 120.942 36.3895 120.894C36.7801 120.84 37.1663 120.879 37.2405 121.212C37.2798 121.391 37.5045 121.602 37.8209 121.814C38.7593 122.459 40.4963 123.134 40.4963 123.134Z" fill="black"/>
<path d="M40.0206 123.134C40.0072 123.3 39.9651 123.462 39.8962 123.613C39.0626 125.668 34.3012 131.219 34.3012 131.219C34.0833 131.876 33.8216 132.518 33.5178 133.14C32.9912 134.214 32.3957 135.253 31.735 136.25C30.367 138.311 28.8516 140.27 27.2005 142.112L27.1503 142.166C27.1503 142.166 26.9582 142.312 26.6527 142.5C26.1069 142.848 25.5054 143.1 24.8743 143.245L24.6081 143.166L24.2437 143.053C23.6327 142.861 23.0268 142.652 22.4259 142.423L22.0615 142.284C21.4796 142.06 20.9101 141.82 20.3529 141.563L19.9885 141.397C19.4066 141.127 18.837 140.841 18.2799 140.541C18.0791 140.436 17.8805 140.323 17.6841 140.216C17.0906 139.885 16.5087 139.538 15.9384 139.174C15.3332 138.789 14.7412 138.388 14.1622 137.969C13.8945 137.778 13.6297 137.581 13.3679 137.379C13.0733 136.821 12.8376 136.35 12.6914 136.058C12.3335 135.341 12.303 134.315 12.3466 133.572C12.3466 133.496 12.3466 133.424 12.3597 133.354C12.3968 132.888 12.4535 132.567 12.4535 132.567C12.4535 132.567 12.2768 132.33 12.0629 132.007C11.9429 131.829 11.8142 131.622 11.6985 131.417C11.4803 131.033 11.3101 130.645 11.3428 130.425C11.3473 130.388 11.3473 130.35 11.3428 130.312C11.3396 130.238 11.3286 130.165 11.3101 130.094C11.1421 129.405 10.4176 128.222 9.74986 127.479C9.25233 126.932 9.22179 124.888 9.26761 123.439C9.26761 123.365 9.26761 123.293 9.26761 123.221C9.29816 122.469 9.34398 121.927 9.34398 121.927C9.0974 121.82 8.90755 121.029 8.78535 120.184L8.75262 119.966C8.61297 118.965 8.54968 117.961 8.54968 117.961C6.9349 116.786 6.16678 114.954 5.81109 113.319C5.5633 112.175 5.46791 111.002 5.52742 109.833C5.52742 109.798 5.52742 109.778 5.52742 109.778C5.52742 109.778 5.71508 105.032 6.31299 103.187C6.33699 103.108 6.36318 103.036 6.38936 102.969C6.44172 102.856 6.50689 102.749 6.58357 102.651C6.91526 102.189 7.13566 101.077 7.27968 99.9398L7.30586 99.7219C7.48698 98.1965 7.53717 96.6994 7.53717 96.6994L7.13129 94.7121C7.02073 94.1673 6.93562 93.6218 6.87598 93.0756C6.86507 93.0037 6.85852 92.9296 6.84979 92.8577C6.74776 91.8477 6.72951 90.8309 6.79524 89.8179C6.79524 89.7438 6.79524 89.6719 6.81052 89.5999C6.97987 87.2924 7.58399 85.0375 8.59114 82.9537C8.62606 82.8796 8.66097 82.8077 8.70025 82.7358C8.98082 82.1698 9.29262 81.6199 9.63421 81.0884C9.75205 80.9032 9.87206 80.7201 9.99863 80.5393C10.1972 80.2516 10.4045 79.9683 10.6205 79.6938L10.7951 79.4759C11.4702 78.6361 12.2203 77.8593 13.0362 77.1551C15.4365 75.1002 17.6187 74.3071 19.5826 74.379C27.3183 74.6557 31.6608 88.3361 32.3743 90.7723C32.4442 91.012 32.4791 91.1428 32.4791 91.1428C32.4791 91.1428 35.737 94.3961 34.7834 95.8235C34.5985 96.1376 34.486 96.489 34.4539 96.852C34.1899 98.7718 34.9427 101.934 34.9427 101.934C34.9427 101.934 35.2089 102.805 35.9858 104.893C36.0556 105.087 36.132 105.289 36.204 105.503C36.6906 106.81 36.8041 109.005 36.5248 110.97C36.2564 112.855 35.6279 114.518 34.6154 114.945C32.5511 115.817 33.1053 116.688 33.5832 117.405C33.8659 117.919 34.1018 118.457 34.2881 119.013C34.6656 120.04 35.0125 121.134 35.0125 121.134C35.1554 121.079 35.301 121.031 35.449 120.992C35.7525 120.892 36.074 120.859 36.3917 120.894C36.4796 120.901 36.563 120.935 36.6301 120.992C36.6971 121.05 36.7443 121.126 36.7648 121.212C36.8237 121.474 37.2754 121.798 37.8231 122.106C38.5343 122.492 39.2681 122.835 40.0206 123.134Z" fill="#CED7E7"/>
<path opacity="0.1" d="M11.2991 102.18C12.0541 102.141 20.1586 99.0072 21.8279 100.077C23.4973 101.147 33.8297 108.09 33.8297 108.09C33.8297 108.09 27.3553 99.6413 21.7144 97.6583C16.0736 95.6753 11.2991 102.18 11.2991 102.18Z" fill="black"/>
<path opacity="0.1" d="M22.9497 114.954C22.9497 114.954 31.0542 116.58 32.2849 117.691L22.9497 114.954Z" fill="black"/>
<path opacity="0.1" d="M21.3894 127.057C21.2716 127.176 18.3344 133.76 18.5701 133.76C18.8058 133.76 21.3109 129.837 21.3109 129.837L21.3894 127.057Z" fill="black"/>
<path opacity="0.1" d="M26.9124 119.157C26.9124 119.157 24.5295 119.992 24.8066 120.07C25.0837 120.149 26.8316 119.515 26.9124 119.157Z" fill="black"/>
<path opacity="0.1" d="M24.5295 129.116C24.9267 129.948 26.1967 132.448 26.476 132.051C26.7553 131.654 24.5295 129.116 24.5295 129.116Z" fill="black"/>
<path opacity="0.1" d="M54.2764 63.137L53.9359 63.6208C53.9359 63.6208 51.2323 61.7184 50.1215 60.7662C49.0108 59.8139 46.3879 64.1764 44.3214 65.3662C42.2549 66.556 38.7613 66.8742 38.7613 66.8742C38.7613 66.8742 36.0598 64.1764 36.1427 63.3876C36.2257 62.5988 34.8727 62.3569 34.792 61.8012C34.7112 61.2456 34.2355 59.6592 33.6005 58.866C33.2645 58.4476 33.2165 57.138 33.247 55.9983C33.4652 55.9547 33.6005 55.9307 33.6005 55.9307C33.9397 55.3153 34.3684 54.7535 34.8727 54.2637C35.5885 53.6296 36.6992 49.7421 36.6992 49.7421C37.3342 47.6001 38.6042 48.2342 38.6042 48.2342C38.6042 51.4876 41.9429 52.6774 43.61 54.0262C45.2772 55.3751 47.9001 58.866 49.9666 59.5807C51.6621 60.1582 53.6457 62.3918 54.2764 63.137Z" fill="black"/>
<path d="M54.2765 62.6598L53.9361 63.1457C53.9361 63.1457 51.2215 61.2477 50.1108 60.2889C49.0001 59.3301 46.3772 63.6992 44.3107 64.889C42.2442 66.0788 38.7506 66.3991 38.7506 66.3991C38.7506 66.3991 36.0491 63.6992 36.132 62.9126C36.2149 62.1259 34.862 61.8818 34.7812 61.324C34.7005 60.7661 34.2248 59.1819 33.5898 58.3888C33.2537 57.9704 33.2057 56.6607 33.2363 55.5211L33.5898 55.4557C33.929 54.8402 34.3577 54.2785 34.862 53.7887C35.5777 53.1524 36.6884 49.2671 36.6884 49.2671C37.3234 47.125 38.5935 47.7569 38.5935 47.7569C38.5935 51.0103 41.9321 52.2023 43.5993 53.5512C45.2664 54.9 47.8894 58.3888 49.9559 59.1035C51.6623 59.6897 53.6459 61.9145 54.2765 62.6598Z" fill="#CED7E7"/>
<path opacity="0.1" d="M54.4793 63.3047C54.4793 63.3047 52.1379 64.5729 50.3092 64.6928C50.0699 64.7039 49.83 64.6901 49.5935 64.6514C49.5935 64.6514 51.612 63.1456 53.4864 62.8384L54.4793 63.3047Z" fill="black"/>
<path opacity="0.1" d="M59.2474 69.7701C59.2474 69.7701 56.295 68.6218 55.3196 70.3498C55.3523 69.5566 55.3654 68.8985 55.3654 68.8985L58.5841 68.2622C58.5841 68.2622 58.8939 68.8353 59.2562 69.6067C59.2474 69.7091 59.2474 69.7701 59.2474 69.7701Z" fill="black"/>
<path d="M49.5935 64.6515C49.5935 64.6515 53.1308 62.5312 54.8307 62.7099C56.6135 62.8951 60.0678 63.0259 60.0678 63.0259C60.0678 63.0259 58.8763 65.7236 59.0356 66.2793C59.1949 66.8349 59.2342 69.5327 59.2342 69.5327C59.2342 69.5327 55.6599 68.1446 55.0641 70.7224C55.0641 70.7224 53.1177 67.8264 51.8062 66.9526C50.936 66.3248 50.1864 65.5452 49.5935 64.6515Z" fill="#63667E"/>
<path opacity="0.1" d="M69.5755 67.1138C68.5433 67.1138 64.8882 64.8105 64.0939 63.3048C63.2996 61.799 62.1867 63.4617 61.1546 64.0195C60.4999 64.3769 57.9053 63.6294 56.5066 63.0869C57.2158 62.6053 58.7869 61.2499 59.2474 60.9252C59.8016 60.5264 60.3603 54.1003 60.3603 54.1003C62.346 53.0696 64.4911 62.4309 64.4911 62.4309C64.4911 62.4309 68.2269 63.5423 68.5433 64.3355C68.6044 64.4924 68.8859 64.7713 69.3092 65.1091C69.7457 66.2073 69.9857 67.1138 69.5755 67.1138Z" fill="black"/>
<path d="M69.5756 66.6366C68.5434 66.6366 64.8884 64.3355 64.0941 62.8297C63.2998 61.3239 62.1869 62.9866 61.1547 63.5423C60.5001 63.8996 58.4205 63.2089 57.0217 62.6706C57.7309 62.1912 58.7871 60.7792 59.2475 60.4523C59.8018 60.0557 60.3604 53.6296 60.3604 53.6296C62.3462 52.5988 64.4912 61.9602 64.4912 61.9602C64.4912 61.9602 68.227 63.0716 68.5434 63.8648C68.6045 64.0217 68.886 64.3006 69.3094 64.6384C69.7458 65.7301 69.9858 66.6366 69.5756 66.6366Z" fill="#CED7E7"/>
<path d="M83.6916 136.143L118.237 107.379C118.582 107.088 119.021 106.933 119.472 106.943L132.36 107.281C132.36 107.281 133.252 107.935 131.943 109.364L99.3551 136.069C99.0029 136.357 98.5659 136.52 98.1113 136.535L84.019 137.002C83.9178 137.005 83.8181 136.977 83.7339 136.92C83.6496 136.864 83.585 136.783 83.5489 136.689C83.5129 136.594 83.5073 136.491 83.5329 136.393C83.5585 136.295 83.614 136.208 83.6916 136.143Z" fill="#6C6C77"/>
<path d="M100.403 132.605C100.403 132.605 107.948 143.396 116.332 133.359C124.716 123.322 122.292 118.048 119.749 117.769C117.207 117.49 102.903 128.48 100.403 132.605Z" fill="#FFA2A2"/>
<path opacity="0.1" d="M151.297 11.9132C151.297 11.9132 161.023 -6.93602 172.518 2.78493C172.518 2.78493 175.028 3.69797 174.838 6.34775C174.838 6.34775 173.871 5.81823 173.103 7.84261C172.821 8.56091 172.455 9.24336 172.012 9.8757C171.424 10.7299 170.574 11.3707 169.59 11.7018C169.59 11.7018 164.431 15.561 154.876 12.5843C154.876 12.5843 152.174 12.9722 151.738 12.6366L154.878 10.3442C154.878 10.3442 156.473 12.7085 158.806 12.9787C158.806 12.9787 154.878 10.5164 155.327 9.98248C155.419 9.87352 157.047 8.84281 157.047 8.84281C157.047 8.84281 159.838 12.9417 163.456 13.2446C163.456 13.2446 158.387 10.9369 157.66 8.45058L160.207 7.03198C160.207 7.03198 162.943 11.51 167.052 12.0112C167.052 12.0112 161.837 9.41591 160.785 6.7596L163.48 5.70927C163.48 5.70927 166.236 10.0239 169.655 10.4183C169.655 10.4183 163.934 6.8119 164.113 5.5088C164.113 5.5088 166.646 4.69381 167.423 4.80059C167.423 4.80059 169.472 7.85132 171.48 7.9058C171.48 7.9058 167.912 5.09041 168.147 4.65677C168.147 4.65677 171.73 4.47155 173.603 5.33665C173.603 5.33665 170.941 3.85704 168.147 4.09674C168.147 4.09674 169.411 2.61278 171.058 2.28591C171.058 2.28591 169.084 1.47529 167.279 4.15122C167.279 4.15122 164.492 4.40617 164.148 4.71561C164.148 4.71561 165.557 1.82177 167.292 0.590577C167.292 0.590577 164.706 1.04601 163.425 4.96838L160.693 5.96423C160.693 5.96423 162.354 2.04186 163.818 0.830278C163.818 0.830278 161.252 1.70192 160.025 6.27802L157.512 7.64213C157.512 7.64213 158.683 4.15558 160.021 2.4537C160.021 2.4537 157.815 3.77424 156.805 8.05834L155.233 9.16314C155.233 9.16314 156.135 6.63103 156.46 5.92718C156.785 5.22333 156.621 5.07734 156.621 5.07734C155.529 6.36675 154.817 7.93355 154.564 9.60332C154.564 9.60332 151.478 12.0875 151.297 11.9132Z" fill="#6C63FF"/>
<path opacity="0.1" d="M191.52 21.9935C191.52 21.9935 195.915 13.4754 201.109 17.8684C201.109 17.8684 202.243 18.2803 202.156 19.4766C202.156 19.4766 201.72 19.2391 201.373 20.1543C201.247 20.4785 201.083 20.7865 200.884 21.0717C200.618 21.4568 200.236 21.7463 199.793 21.8976C199.793 21.8976 197.46 23.6409 193.142 22.2964C193.142 22.2964 191.922 22.4707 191.725 22.3203L193.144 21.2831C193.144 21.2831 193.864 22.353 194.92 22.4729C194.92 22.4729 193.148 21.3615 193.349 21.1197C193.388 21.0717 194.124 20.6054 194.124 20.6054C194.124 20.6054 195.385 22.4576 197.021 22.5949C197.021 22.5949 194.73 21.5511 194.403 20.4158L195.555 19.7773C195.555 19.7773 196.79 21.8017 198.647 22.0283C198.647 22.0283 196.29 20.856 195.81 19.6553L197.028 19.1803C197.028 19.1803 198.272 21.1305 199.817 21.3092C199.817 21.3092 197.231 19.6793 197.314 19.0909C197.314 19.0909 198.457 18.7226 198.809 18.7706C198.809 18.7706 199.734 20.15 200.642 20.1717C200.642 20.1717 199.029 18.9013 199.136 18.7052C199.136 18.7052 200.755 18.6224 201.597 19.0125C201.597 19.0125 200.395 18.3435 199.136 18.4524C199.483 18.058 199.938 17.7732 200.445 17.6331C200.445 17.6331 199.553 17.267 198.737 18.4764C198.737 18.4764 197.478 18.5919 197.323 18.7314C197.323 18.7314 197.96 17.4239 198.743 16.8682C198.743 16.8682 197.574 17.0731 196.997 18.8469L195.775 19.3045C195.775 19.3045 196.524 17.5329 197.187 16.9837C197.187 16.9837 196.026 17.3781 195.472 19.4439L194.337 20.0584C194.337 20.0584 194.865 18.4808 195.47 17.7137C195.47 17.7137 194.473 18.3108 194.019 20.2458L193.307 20.7448C193.307 20.7448 193.715 19.6008 193.862 19.2827C194.008 18.9645 193.934 18.8992 193.934 18.8992C193.44 19.4838 193.118 20.1936 193.004 20.9497C193.004 20.9497 191.597 22.0719 191.52 21.9935Z" fill="#6C63FF"/>
<path opacity="0.1" d="M143.899 31.9041C143.899 31.9041 148.294 23.386 153.501 27.7791C153.501 27.7791 154.633 28.1909 154.548 29.3894C154.548 29.3894 154.112 29.1497 153.765 30.065C153.638 30.3888 153.474 30.6967 153.276 30.9824C153.008 31.3693 152.621 31.659 152.174 31.8082C152.174 31.8082 149.844 33.5515 145.525 32.207C145.525 32.207 144.305 32.3835 144.109 32.231L145.527 31.1937C145.527 31.1937 146.247 32.2637 147.301 32.3857C147.301 32.3857 145.529 31.2722 145.73 31.0303C145.772 30.9824 146.507 30.516 146.507 30.516C146.507 30.516 147.768 32.3683 149.403 32.5055C149.403 32.5055 147.114 31.4618 146.784 30.3264L147.936 29.6901C147.936 29.6901 149.174 31.7123 151.031 31.939C151.031 31.939 148.674 30.7666 148.194 29.5659L149.412 29.0909C149.412 29.0909 150.658 31.0412 152.202 31.2199C152.202 31.2199 149.617 29.5899 149.697 29.0016C149.697 29.0016 150.843 28.6333 151.194 28.6812C151.194 28.6812 152.12 30.0606 153.027 30.0846C153.027 30.0846 151.415 28.812 151.522 28.6159C151.522 28.6159 153.139 28.533 153.983 28.9231C153.983 28.9231 152.779 28.2541 151.519 28.3631C151.867 27.9686 152.322 27.6839 152.829 27.5437C152.829 27.5437 151.938 27.1776 151.122 28.387C151.122 28.387 149.863 28.5025 149.708 28.642C149.708 28.642 150.343 27.3345 151.129 26.7789C151.129 26.7789 149.959 26.9837 149.383 28.7575L148.146 29.2151C148.146 29.2151 148.897 27.4435 149.558 26.8965C149.558 26.8965 148.399 27.2888 147.845 29.3546L146.708 29.9691C146.708 29.9691 147.238 28.3914 147.843 27.6244C147.843 27.6244 146.845 28.2214 146.389 30.1565L145.678 30.6555C145.678 30.6555 146.086 29.5115 146.232 29.1933C146.378 28.8752 146.306 28.8098 146.306 28.8098C145.812 29.3938 145.49 30.1039 145.377 30.8603C145.377 30.8603 143.976 31.9826 143.899 31.9041Z" fill="#6C63FF"/>
</g>
<defs>
<clipPath id="clip0_109_1977">
<rect width="234" height="170" fill="white"/>
</clipPath>
</defs>
</svg>
