<svg width="52" height="52" viewBox="0 0 52 52" fill="none" xmlns="http://www.w3.org/2000/svg">
<path d="M52 26C52 40.3594 40.3594 52 26 52C11.6406 52 3.10805e-06 40.3594 3.10805e-06 26C3.10805e-06 11.6406 11.6406 0 26 0C40.3594 0 52 11.6406 52 26ZM7.34788 26C7.34788 36.3013 15.6987 44.6521 26 44.6521C36.3013 44.6521 44.6521 36.3013 44.6521 26C44.6521 15.6987 36.3013 7.34788 26 7.34788C15.6987 7.34788 7.34788 15.6987 7.34788 26Z" fill="#6B7280"/>
<path d="M52 26C52 30.5099 50.8269 34.9423 48.5959 38.8617C46.365 42.7812 43.1529 46.0529 39.2751 48.3556C35.3974 50.6582 30.9873 51.9127 26.4782 51.9956C21.9691 52.0786 17.5159 50.9872 13.5561 48.8287C9.59625 46.6702 6.26599 43.5188 3.89238 39.684C1.51877 35.8493 0.18346 31.4631 0.0175934 26.9562C-0.148273 22.4494 0.861013 17.9769 2.94632 13.978C5.03162 9.97919 8.12123 6.59153 11.9117 4.1478L15.8932 10.3235C13.174 12.0766 10.9575 14.5068 9.46154 17.3756C7.96556 20.2443 7.24151 23.4528 7.3605 26.686C7.47949 29.9192 8.43743 33.0658 10.1402 35.8168C11.843 38.5678 14.2321 40.8286 17.0729 42.377C19.9136 43.9255 23.1082 44.7085 26.3431 44.649C29.5779 44.5895 32.7416 43.6896 35.5234 42.0376C38.3053 40.3857 40.6096 38.0386 42.2101 35.2269C43.8106 32.4151 44.6521 29.2354 44.6521 26H52Z" fill="#D9D9D9"/>
</svg>
